<?xml version="1.0" encoding="UTF-8"?>
<svg id="Layer_1" data-name="Layer 1" xmlns="http://www.w3.org/2000/svg" viewBox="0 0 629.58 413.96">
  <defs>
    <style>
      .cls-1 {
        fill: #231f20;
      }
    </style>
  </defs>
  <path class="cls-1" d="M332.62,115.26c-.13,0-.25-.02-.35-.04-.39-.1-.8-.4-1-.75-.85-1.48.7-2.6,2.86-4.15,1.2-.86,2.81-1.96,4.91-3.33-8.32,4.9-9.24,5.1-10.05,4.89-.39-.1-.77-.38-.97-.73-.77-1.33-.67-1.96,7.21-7.13-4.95,2.82-5.71,2.92-6.38,2.75-.39-.1-.77-.38-.97-.73-.85-1.48-1.16-2,15.46-12.91-9.74,5.78-11.62,6.5-12.61,6.25-.39-.1-.79-.4-1-.75-.86-1.49-.26-2.05,7.96-7.51.85-.56,1.74-1.15,2.69-1.77-9.74,5.79-11.62,6.51-12.65,6.25-.39-.1-.8-.4-1-.75-.83-1.44-.35-1.92,7.38-7.22,3.1-2.13,6.92-4.69,11.08-7.45-19.19,11.67-20.39,12.11-21.48,11.83-.39-.1-.77-.38-.97-.73-.81-1.4.53-2.39,2.57-3.89,1.39-1.02,3.42-2.42,6.19-4.28.25-.16.5-.33.75-.5-13.06,7.84-14.06,8.12-15,7.88-.39-.1-.77-.38-.97-.73-.85-1.47-.39-2.08,8.45-8.01.52-.35,1.05-.7,1.6-1.07-7.07,4.14-7.9,4.29-8.67,4.1-.39-.1-.77-.38-.97-.73-.85-1.47-.15-2.16,7.49-7.39,2.41-1.65,5.24-3.55,8.32-5.59-10.41,6.28-11.25,6.49-12.14,6.27-.39-.1-.77-.38-.97-.73-.85-1.47.31-2.37,6.6-6.89,2.38-1.71,5.31-3.76,8.39-5.91-16.19,9.86-18.34,10.86-19.51,10.57-.39-.1-.78-.39-.98-.74-.84-1.45-.12-2.17,6.96-7.05,1.14-.79,2.4-1.64,3.74-2.54-15.64,9.37-15.92,9.31-16.82,9.07-.39-.1-.75-.37-.95-.72-.84-1.45-.06-2.11,6.47-6.62,2.3-1.59,5.07-3.46,8.09-5.48-7.34,4.34-7.67,4.25-8.4,4.06-.39-.1-.75-.37-.96-.72-.77-1.34-.84-1.45,9.69-9.23-13.73,8.43-14.58,8.69-15.59,8.44-.39-.1-.77-.38-.97-.73-.82-1.42-.03-2.13,5.83-6.42.51-.37,1.04-.75,1.59-1.15-2.63,1.48-2.93,1.41-3.47,1.27-.39-.1-.76-.37-.96-.72-.69-1.19-.8-1.39,6.71-7.25-9.94,6.03-10.67,6.22-11.56,6-.39-.1-.77-.38-.97-.73-.8-1.39-.83-1.44,10.6-10.52-13.17,8.11-13.38,8.06-14.34,7.82-.39-.1-.76-.38-.96-.73-.81-1.4.18-2.24,4.98-5.94,1.49-1.15,3.24-2.47,5.11-3.86-7.76,4.67-8.04,4.59-8.81,4.4-.39-.1-.75-.37-.96-.72-.73-1.27-.79-1.38,7.43-8.25-12.48,7.58-12.63,7.54-13.52,7.32-.39-.1-.75-.37-.95-.72-.73-1.26-.78-1.36,7.36-7.92-.15,0-.28-.03-.42-.06-.39-.1-.76-.37-.97-.73-.69-1.2-.75-1.3,6.45-8.02-11.31,6.86-11.41,6.83-12.29,6.6-.39-.1-.74-.36-.94-.71-.66-1.14-.71-1.24,5.12-6.99-6.38,3.86-6.51,3.82-7.27,3.63-.39-.1-.74-.36-.94-.71-.52-.9-.56-.97,2.48-5.29-1.18.69-1.53.75-2.06.62-.4-.1-.75-.36-.96-.72-.51-.88-.53-.93,2.29-4.83-3.7,2.26-3.75,2.25-4.45,2.07-.39-.1-.73-.36-.94-.71-.45-.78-.47-.82,1.78-5.4-.47.21-.74.22-1.11.12-.4-.1-.74-.36-.95-.71q-.4-.7,1.25-5.21s.03-.08.04-.12c-.85.48-1.01.46-1.48.34-.19-.05-.37-.13-.53-.25-.35-.19-1.72-.86-2.65-1.31-.88-.42-1.49-.72-1.93-.94-.22.06-.47.08-.77,0l.09-.37c-.4-.24-.47-.35-.6-.58l.88-.5-.69-1.33.15-.09c.29-.18.73-.44,1.35-.28.18.05.34.13.49.23.31.17,1.48.73,2.34,1.15,1.04.5,1.75.85,2.24,1.1.33-.2.74-.45,1.09-.65,2.4-1.45,2.45-1.48,3.11-1.31.39.1.73.35.93.7q.41.71-1.25,5.23s-.02.05-.03.08c1.03-.62,1.28-.67,1.82-.53.4.1.74.36.94.71q.45.77-1.7,5.13c-.06.12-.12.23-.18.36.02-.01.05-.03.07-.04,5.27-3.22,5.3-3.21,6.07-3.01.39.1.74.36.94.71.49.85.56.96-2.06,4.6.99-.56,1.33-.6,1.83-.48.4.1.76.37.96.72.54.93.55.94-2.81,5.7,1.05-.63,2.12-1.28,3.08-1.87q7.56-4.6,8.39-4.38c.39.1.73.36.94.71.67,1.17.69,1.2-5.71,7.5.79-.48,1.57-.95,2.3-1.39,10.71-6.49,10.76-6.48,11.64-6.25.39.1.74.36.94.71.69,1.19.7,1.21-6.62,8.03,3.21-1.97,3.48-1.99,4.14-1.82.4.1.75.37.96.72.75,1.3-.14,2.04-3.47,4.81-.81.67-1.73,1.43-2.71,2.23,10.62-6.44,10.77-6.4,11.63-6.18.39.1.74.37.95.72.74,1.29.79,1.37-7.85,8.59.57-.35,1.12-.69,1.66-1.01,13.58-8.29,13.72-8.25,14.65-8.01.39.1.75.37.95.72.81,1.4-.21,2.17-4.47,5.45-1.78,1.37-3.96,3-6.33,4.77,8.11-4.94,8.74-5.07,9.58-4.86.39.1.77.38.97.73.77,1.34-.16,2.11-4.07,5.33-1.86,1.53-4.25,3.44-6.69,5.38.34-.21.68-.42,1.02-.62,13.05-8,13.17-7.97,14.11-7.73.39.1.75.37.95.72.7,1.21.79,1.36-7.35,7.69,10.7-6.55,11.38-6.73,12.31-6.5.39.1.77.38.97.73.81,1.41-.15,2.11-4.77,5.47-1.26.92-2.72,1.96-4.31,3.08,8.85-5.37,9.53-5.52,10.39-5.3.39.1.77.38.97.73.81,1.39-.11,2.16-5.08,5.97-1.26.96-2.69,2.04-4.22,3.18h0c19-11.52,19.21-11.47,20.2-11.22.39.1.75.37.95.72.83,1.43.31,2.15-7.97,7.91-1.25.87-2.62,1.81-4.06,2.79,14.98-8.95,15.33-8.86,16.22-8.63.39.1.75.37.95.72.83,1.44.12,2.16-6.87,6.97-.96.66-2,1.37-3.1,2.11,10.64-6.43,11.42-6.62,12.3-6.4.39.1.76.38.97.73.81,1.4.32,1.91-6.55,6.84-2.53,1.81-5.67,4.02-8.97,6.31,16.68-10.18,18.7-11.12,19.88-10.83.39.1.78.39.98.74.84,1.45.35,2.11-8.12,7.93-2.03,1.39-4.36,2.96-6.85,4.62,15.01-9.06,16.01-9.37,17-9.12.39.1.76.38.96.73.84,1.46.39,2.05-8.24,7.83-.65.43-1.33.89-2.04,1.36,12.63-7.55,14.64-8.4,15.67-8.14.39.1.78.39.98.74.85,1.48.26,2.04-7.96,7.52-.21.14-.42.28-.63.42,6.4-3.73,7.68-4.15,8.49-3.94.39.1.78.39.98.74.9,1.56,1.05,1.82-17.82,14.42,22.32-13.69,24.6-14.84,25.89-14.51.39.1.78.39.98.74.75,1.3,1.03,1.79-10.31,9.33,11.04-6.62,12.05-6.88,12.97-6.65.39.1.77.39.98.74.82,1.42-.6,2.47-2.55,3.92-1.4,1.04-3.46,2.46-6.28,4.34-4.16,2.78-9.43,6.19-15.12,9.86,24.41-14.82,27.71-16.44,29.11-16.08.39.1.79.4,1,.75.67,1.17.67,1.84-4.82,5.6,3.16-1.66,4.29-1.96,4.94-1.8.39.1.8.4,1,.75.65,1.13.69,1.77-4.12,5.11,7.85-4.57,9.59-5.18,10.53-4.94.39.1.8.4,1,.75.41.72.17,1.63-.55,2.05-.31.18-.65.23-.97.18-2.98.94-20.86,11.89-35.3,20.74-28.88,17.69-34.11,20.6-35.93,20.6ZM402.77,73.2h0ZM402.77,73.19h0s0,0,0,0ZM402.77,73.19s0,0,0,0t0,0ZM402.77,73.19s0,0,0,0c0,0,0,0,0,0ZM277.79,2.94l-.34.2.34-.2Z"/>
  <path class="cls-1" d="M262.39,413.96c-.12,0-.22-.01-.31-.04-.39-.1-.78-.39-.98-.74-.26-.44-.32-.98-.17-1.51.32-1.17,2.7-3.32,7.19-6.51-.43.04-.75.02-1-.05-.52-.13-.94-.44-1.19-.88-.25-.43-.31-.94-.17-1.45.25-.9,1.28-2.28,6.46-5.92-.73-.19-1.11-.63-1.3-.96-.25-.43-.31-.95-.17-1.46.22-.81,1.05-1.98,4.75-4.73-.43.05-.77.04-1.04-.02-.56-.14-1.01-.47-1.28-.93-.25-.44-.31-.97-.17-1.49.29-1.08,2.35-3.01,6.21-5.84-.49.07-.83.04-1.1-.03-.51-.13-.93-.44-1.18-.87-.25-.43-.31-.94-.17-1.45.2-.72,1.25-1.86,3.19-3.43-1.71.63-2.82.85-3.4.7-.5-.13-.9-.43-1.15-.85-.19-.33-.37-.87-.18-1.59.43-1.55,4.07-4.64,10.7-9.18-.26-.17-.47-.39-.62-.65-.26-.44-.32-.98-.17-1.51.18-.67.86-1.61,2.73-3.21-1.42.45-2.11.46-2.58.34-.5-.13-.92-.44-1.17-.86-.24-.42-.3-.93-.17-1.42.4-1.46,4.55-4.69,12.81-9.99-.26,0-.48,0-.66-.05-.73-.18-1.11-.62-1.3-.95-.26-.45-.32-1-.17-1.54.11-.4.38-.89.97-1.55-2.82,1.19-3.43,1.04-3.94.91-.48-.12-.87-.42-1.11-.82-.25-.44-.32-.97-.17-1.5.3-1.09,2.35-3,6.2-5.79-.23,0-.44-.01-.61-.06-.55-.14-1-.47-1.27-.93-.18-.32-.36-.84-.17-1.54.38-1.4,3.38-4.03,9.08-7.99-.27.02-.49,0-.67-.04-.51-.13-.92-.44-1.17-.86-.24-.41-.3-.91-.17-1.4.2-.73.46-1.71,7.2-6.32-.6.13-1.05.15-1.37.07-.5-.13-.92-.43-1.16-.86-.24-.42-.3-.92-.17-1.41.27-.98,2.24-2.77,6.04-5.47-.89.22-1.54.27-1.98.16-.54-.14-.99-.46-1.25-.92-.25-.43-.31-.96-.17-1.48.37-1.35,3.46-4,9.38-8.05-.38.06-.67.06-.89,0-.49-.12-.89-.42-1.12-.83-.23-.41-.29-.89-.16-1.37.2-.73,1.48-1.98,3.9-3.79-1.6.58-2.69.8-3.27.65-.51-.13-.93-.44-1.17-.87-.25-.43-.3-.94-.17-1.44.25-.9,1.79-2.39,4.72-4.55-.34.01-.55-.04-.75-.09-.49-.13-.9-.43-1.14-.84-.24-.42-.3-.93-.17-1.43.22-.8,1.49-2.09,3.88-3.93-1.77.66-2.25.53-2.66.43-.48-.12-.87-.41-1.1-.82-.24-.42-.3-.93-.17-1.42.03-.13.1-.26.18-.42-5.43,2.67-8.7,3.84-9.97,3.51-.53-.13-.97-.45-1.22-.9-.24-.42-.3-.92-.17-1.42.15-.56.79-1.35,1.99-2.41-5.1,2.56-8.09,3.66-9.21,3.38-.5-.13-.91-.43-1.16-.85-.25-.43-.31-.95-.17-1.46.04-.15.11-.31.22-.49-12.36,6.75-13.42,6.48-14.26,6.26-.46-.12-.84-.4-1.07-.8-.23-.4-.29-.87-.16-1.34.09-.34.44-.8,1.04-1.38-2.32.95-3.81,1.33-4.52,1.16-.51-.13-.92-.44-1.17-.86-.23-.4-.29-.88-.16-1.35.08-.28.16-.59.65-1.15-4.01,1.83-6.51,2.6-7.56,2.34-.53-.13-.96-.45-1.21-.89-.25-.42-.3-.94-.17-1.44.07-.25.24-.54.51-.89-5.48,2.75-8.46,3.82-9.57,3.54-.49-.12-.89-.42-1.13-.84-.24-.42-.3-.92-.17-1.41.01-.05.03-.1.04-.16-7,3.6-11.1,5.2-12.48,4.85-.52-.13-.95-.45-1.2-.88-.19-.32-.37-.85-.18-1.55.12-.45.51-1.03,1.17-1.73-3.64,1.63-5.94,2.31-6.97,2.04-.55-.14-.99-.46-1.25-.92-.23-.4-.29-.88-.16-1.35.07-.27.16-.58.61-1.11-6.34,3.2-10.1,4.6-11.45,4.27-.53-.13-.96-.45-1.22-.9-.19-.32-.37-.85-.17-1.55.06-.21.17-.45.35-.71-4.71,2.21-7.59,3.15-8.73,2.86-.53-.13-.96-.45-1.21-.89-.24-.42-.3-.92-.17-1.41.12-.45.62-1.08,1.5-1.9-4.35,2.01-7.04,2.87-8.13,2.58-.53-.13-.96-.45-1.21-.89-.15-.27-.23-.57-.23-.88-7.88,4.04-12.56,5.82-14.25,5.39-.73-.18-1.11-.62-1.3-.95-.24-.42-.3-.92-.17-1.42.06-.21.16-.46.37-.76-8.23,4.25-9.23,3.99-10,3.8-.48-.12-.88-.42-1.12-.83-.24-.42-.3-.92-.17-1.42.14-.52.77-1.27,1.88-2.27-3.14,1.32-5.16,1.86-6.12,1.61-.56-.14-1.01-.47-1.27-.93-.25-.43-.31-.94-.17-1.45.06-.2.18-.44.37-.7-3.48,1.5-5.69,2.12-6.7,1.87-.55-.14-.99-.47-1.25-.92-.19-.32-.36-.84-.19-1.53-4.33,1.99-7,2.83-8.08,2.56-.53-.13-.96-.45-1.21-.89-.19-.33-.37-.86-.18-1.58.04-.15.11-.31.21-.49-4.98,2.33-8.02,3.33-9.25,3.02-.54-.14-.98-.46-1.24-.91-.17-.29-.24-.61-.23-.95-8.4,4.3-13.35,6.21-15.08,5.77-.73-.18-1.11-.62-1.3-.95-.2-.34-.39-.91-.18-1.66.04-.13.09-.27.17-.43-3.58,1.58-5.85,2.25-6.84,1.99-.54-.14-.98-.46-1.24-.91-.24-.41-.3-.91-.17-1.4.04-.15.12-.31.23-.5-3.43,1.5-5.59,2.13-6.54,1.89-.53-.14-.97-.45-1.22-.9-.24-.41-.3-.91-.17-1.4.04-.15.12-.31.24-.5-7.46,3.61-10.12,4.17-11.35,3.86-.72-.18-1.1-.61-1.29-.94-.24-.42-.3-.92-.17-1.41.12-.45.61-1.07,1.47-1.88-2.54.98-4.23,1.36-5.1,1.14-.73-.18-1.11-.62-1.3-.95-.23-.4-.3-.88-.19-1.36-7.29,3.59-11.85,5.27-13.51,4.85-.76-.19-1.15-.64-1.35-.98-.2-.34-.39-.91-.18-1.67.07-.25.21-.54.43-.86-2.02.67-3.11.74-3.79.57-.74-.19-1.13-.63-1.32-.96-.25-.43-.31-.95-.17-1.45.05-.19.17-.42.35-.67-7.61,3.9-12.08,5.64-13.56,5.26-.54-.14-.97-.46-1.23-.9-.25-.43-.31-.96-.17-1.47.05-.18.12-.37.25-.59-2.83,1.18-4.65,1.67-5.5,1.45-.53-.13-.96-.45-1.22-.9-.25-.43-.31-.95-.17-1.46.03-.1.07-.21.13-.32-12.29,6.63-13.43,6.34-14.3,6.11-.48-.12-.87-.41-1.1-.82-.24-.42-.3-.93-.17-1.43.1-.37.41-.83.94-1.4-6.47,3.21-7.38,2.98-8.09,2.79-.49-.12-.89-.42-1.12-.83-.19-.33-.37-.86-.18-1.57.02-.08.05-.16.09-.25-3.48,1.57-5.63,2.22-6.55,1.99-.51-.13-.93-.44-1.18-.87-.24-.42-.3-.93-.17-1.43.01-.04.03-.09.04-.13-6.42,3.28-10.14,4.71-11.38,4.39-.5-.13-.91-.43-1.16-.86-.25-.44-.31-.97-.17-1.49.15-.55.77-1.32,1.85-2.32-2.27.88-3.78,1.22-4.54,1.02-.54-.14-.98-.46-1.24-.91-.24-.41-.3-.91-.17-1.39.11-.39.5-.92,1.19-1.59-3.62,1.57-5.94,2.21-7.01,1.94-.56-.14-1.02-.48-1.29-.94-.25-.43-.31-.96-.17-1.47.32-1.19,2.84-3.41,7.61-6.75-.46-.15-.83-.44-1.06-.84-.19-.32-.37-.85-.18-1.55.18-.65.93-1.57,2.24-2.76-2.9,1.27-4.73,1.79-5.57,1.58-.51-.13-.93-.44-1.18-.87-.23-.4-.29-.87-.16-1.33s.27-1.01,2.47-2.73c-1.57.47-2.1.33-2.53.22-.53-.14-.97-.46-1.23-.9-.23-.41-.29-.89-.16-1.37.2-.73,1.49-1.99,3.92-3.82-1.26.38-1.7.26-2.08.17-.49-.13-.9-.42-1.14-.84-.23-.39-.28-.86-.16-1.32.27-1,2.81-3.1,8.3-6.73-.63.12-1.11.14-1.45.05-.53-.14-.97-.45-1.22-.9-.24-.41-.3-.91-.17-1.39s.7-1.17,1.72-2.08c-2.21.9-3.59,1.23-4.29,1.05-.5-.13-.91-.43-1.15-.85-.23-.4-.29-.87-.16-1.32.22-.83,1.84-2.3,5.28-4.71-.97.28-1.67.36-2.11.25-.52-.13-.94-.44-1.2-.88-.22-.39-.28-.84-.16-1.29.17-.62,1.19-1.64,3.34-3.23-2.39,1.05-3.82,1.45-4.47,1.28-.47-.12-.86-.41-1.09-.81-.6-1.05-1.03-1.79,5.34-6.17-1.11.36-1.86.48-2.3.36-.49-.12-.89-.42-1.12-.83-.57-.98-.41-1.85,1.75-3.65-2.21.94-3.58,1.28-4.25,1.1-.48-.12-.88-.42-1.12-.83-.66-1.14-.44-2.38,5.94-6.86-3.27,1.6-5.07,2.19-5.8,2.01-.45-.12-.83-.4-1.06-.79-.89-1.55.27-2.78,6.55-6.95.86-.57,1.8-1.18,2.83-1.84-1.35.53-2.2.7-2.67.58-.46-.12-.84-.4-1.07-.8-.71-1.23-1.12-1.95,9.83-8.87-3.26,1.61-5.06,2.2-5.82,2-.46-.12-.84-.4-1.07-.8-.51-.89-.27-1.69.96-2.83-4.23,2.18-6.47,2.98-7.38,2.75-.47-.12-.85-.41-1.09-.81-.65-1.13-1.04-1.81,7.11-7.07-2.29,1.06-3.59,1.44-4.19,1.28-.45-.11-.82-.39-1.05-.78-.74-1.28-.52-2.47,8.21-8.18-1.38.58-2.15.73-2.59.62-.44-.11-.8-.38-1.02-.76-.89-1.54.61-2.78,4.8-5.66,1.6-1.1,3.63-2.44,6.13-4.03-6.45,3.63-8.85,4.59-9.8,4.34-.44-.11-.8-.38-1.02-.77-1.18-2.04-1.33-2.3,44.47-29.99,11.43-6.91,25.05-15.14,35.75-21.84-9.76,5.8-21.72,13.12-32.4,19.66-38.53,23.59-46.18,27.96-48.08,27.47-.44-.11-.8-.38-1.01-.76-.7-1.21-1.09-1.88,8.42-8.16-4.91,2.69-6.89,3.39-7.78,3.17-.45-.11-.82-.39-1.04-.78-.9-1.56.75-2.86,3.74-5.01,2.17-1.56,5.34-3.68,9.71-6.48.9-.58,1.84-1.18,2.81-1.79-14.9,8.94-18.82,10.87-20.12,10.54-.39-.1-.81-.41-1.01-.76-.94-1.63-1.19-2.05,22.26-16.89-11.5,6.94-13.27,7.67-14.27,7.41-.39-.1-.78-.39-.98-.74-.88-1.53-1.04-1.8,17.16-13.67-16.73,10.21-18.9,11.2-20.1,10.9-.39-.1-.79-.39-.99-.74-.84-1.45-.29-1.98,7.29-7.07,2.62-1.76,5.79-3.85,9.26-6.11-13.53,8.24-15.38,9.05-16.46,8.78-.39-.1-.78-.39-.99-.74-.82-1.42-.32-2.12,7.68-7.8,2.29-1.63,4.98-3.49,7.84-5.45-10.28,6.21-10.6,6.13-11.44,5.92-.39-.1-.76-.38-.96-.73-.76-1.32-.85-1.46,9.36-8.98-8.15,4.9-8.86,5.05-9.69,4.84-.39-.1-.77-.38-.97-.73-.73-1.27-.76-1.32,7.74-8.53-7.38,4.53-7.6,4.47-8.4,4.27-.39-.1-.76-.37-.96-.72-.59-1.01-.61-1.06,3.9-6.72-3.11,1.91-3.32,1.95-4,1.78-.39-.1-.74-.36-.95-.71-.47-.81-.49-.85,1.72-4.89-1.67.96-1.78.93-2.27.79l.39-1.45,1.3-.75-1.3.75-.63-1.36c.24-.12,1.82-1.05,2.97-1.72q3.03-1.78,3.65-1.61c.39.1.72.35.92.7.47.81.48.84-1.75,4.91.02,0,.03-.02.05-.03,5.05-3.13,5.27-3.24,6.09-3.04.39.1.75.36.95.72q.6,1.03-4.16,6.99c-.05.06-.1.12-.15.18,1.38-.84,2.83-1.74,4.11-2.53,10.13-6.26,10.27-6.22,11.16-5.99.39.1.75.37.96.72.77,1.33.82,1.41-8.43,9.26,1.5-.91,2.99-1.82,4.36-2.67,13.44-8.23,13.56-8.2,14.5-7.96.39.1.75.37.95.72.81,1.4-.13,2.18-5.23,6.06-1.27.96-2.71,2.04-4.25,3.19,17.97-10.98,19.06-11.36,20.16-11.09.39.1.77.38.97.73.84,1.45.06,2.12-6.43,6.7-3.59,2.53-8.33,5.76-13.38,9.2,23.51-14.46,26.25-15.85,27.67-15.5.39.1.8.4,1,.75.81,1.41.64,2-9.01,8.55,12.87-7.76,15.44-8.91,16.62-8.61.39.1.81.41,1.01.76.75,1.31.99,1.72-10.48,9.34,13.84-8.34,17.67-10.21,19.04-9.87.44.11.81.38,1.03.77.95,1.65,1.19,2.07-22.52,17.08,28.42-17.33,34.98-20.92,36.75-20.47.44.11.8.38,1.02.77.88,1.52-.7,2.76-3.56,4.81-2.05,1.47-5.05,3.47-9.18,6.1-3.14,2-6.76,4.27-10.64,6.68,23.75-14.48,29.53-17.58,31.2-17.16.44.11.81.38,1.03.77.76,1.32,1.08,1.87-11,9.53,12.54-7.38,16.62-9.27,17.96-8.93.45.11.82.39,1.04.78.86,1.5-.44,2.78-4.81,5.86-.59.41-1.23.86-1.93,1.34,11.65-6.8,15.59-8.58,16.9-8.25.45.11.82.39,1.04.78.56.98.93,1.61-4.04,5.12,11.71-6.75,17.04-9.26,18.55-8.88.47.12.85.41,1.09.81.47.82.57,1.61-1.58,3.5,6.18-3.34,9.23-4.57,10.31-4.29.46.12.84.4,1.07.8.51.88.51,1.79-2.41,4.19,2.04-.88,3.3-1.19,3.93-1.03.48.12.87.41,1.11.82.31.54.44,1.08-.17,1.95,8.02-4.43,11.99-6.1,13.3-5.77.48.12.88.41,1.11.82.55.94.51,1.94-2.98,4.71,2.91-1.33,4.62-1.82,5.41-1.62.49.12.89.42,1.13.83.42.73.5,1.47-1.19,3.08,9.5-5.28,14.09-7.31,15.42-6.97.47.12.85.41,1.08.81.58,1,.53,1.98-4.36,5.46,8.28-4.58,12.24-6.28,13.45-5.97.46.12.85.4,1.08.8.61,1.06.38,1.91-2.45,4.04,4.35-2.24,6.59-3.05,7.43-2.84.45.12.83.39,1.05.79.53.92.44,1.69-1.46,3.28,5.07-2.61,7.73-3.6,8.7-3.35.46.12.85.4,1.08.8.24.41.3.9.17,1.39-.07.26-.27.59-.6.97,7.05-3.81,10.56-5.22,11.74-4.92.48.12.87.41,1.1.82.24.41.3.91.17,1.4-.06.22-.21.49-.45.79,7.15-3.79,11.19-5.44,12.49-5.11.49.13.9.42,1.14.84.25.43.31.95.17,1.47-.13.47-.59,1.1-1.4,1.89,2.35-1.01,3.77-1.37,4.47-1.2.49.12.89.42,1.12.83.23.4.29.88.16,1.35-.1.36-.48.86-1.14,1.51,11.23-6.07,12.33-5.79,13.15-5.58.47.12.86.41,1.1.82.24.41.3.91.17,1.39-.13.5-.69,1.19-1.71,2.11,3.72-1.82,5.78-2.51,6.59-2.3.47.12.85.41,1.08.81.23.4.29.89.16,1.36-.03.11-.08.23-.16.37,4.09-1.85,6.67-2.62,7.81-2.33.56.14,1.01.47,1.27.93.23.4.29.88.16,1.34-.15.54-.91,1.37-2.34,2.53,5.77-2.9,9.2-4.18,10.42-3.87.51.13.93.44,1.18.87.2.34.27.74.21,1.15,7.91-4.13,12.5-5.97,14.02-5.59.53.13.97.45,1.22.9.25.44.31.97.17,1.5-.13.47-.58,1.1-1.37,1.89,3.13-1.34,5.14-1.88,6.07-1.65.54.14.98.46,1.24.91.26.45.32,1,.17,1.54-.04.13-.1.27-.18.43,7.06-3.57,11.22-5.15,12.64-4.79.53.13.96.45,1.22.89.23.4.29.87.18,1.34,4.27-1.93,6.94-2.73,8.09-2.44.55.14,1.01.47,1.27.93.25.43.31.96.17,1.47-.08.3-.31.67-.69,1.11,2.02-.78,3.34-1.08,4-.91.51.13.93.44,1.17.87.25.43.31.96.17,1.48-.03.09-.06.19-.11.29,11.87-6.25,13.14-5.92,14.04-5.69.49.12.89.42,1.13.82,39.75-23.53,63.27-36.25,67.41-35.2.74.19,1.13.63,1.32.96.1.17.2.4.24.68,5.47-2.51,8.98-3.63,10.4-3.27.77.19,1.17.65,1.37.99.2.35.4.92.18,1.69-.22.79-1.11,1.9-2.67,3.32.89-.22,1.54-.27,1.97-.16.55.14.99.47,1.26.92.19.33.38.88.18,1.61-.13.46-.52,1.04-1.18,1.75,1.29-.37,2.21-.49,2.78-.34.73.18,1.11.62,1.3.95.25.44.32.97.17,1.5-.11.39-.44.9-1.01,1.51,2.94-1.18,4.87-1.65,5.81-1.41.73.18,1.11.62,1.3.95.26.44.32.98.17,1.51-.11.39-.43.88-.98,1.49,4.61-2.21,7.38-3.16,8.42-2.89.51.13.92.43,1.17.86.26.45.32.99.17,1.53-.19.71-.92,1.72-2.98,3.46,1.28-.38,2.19-.5,2.74-.36.55.14.99.47,1.26.92.15.26.23.55.24.85,5.43-2.53,8.89-3.67,10.27-3.32.75.19,1.14.64,1.34.98.26.44.32.98.17,1.5-.22.79-1.37,2.01-3.48,3.7.54-.08.96-.09,1.27-.01.55.14,1,.47,1.27.93.24.42.3.92.17,1.42-.1.35-.32.79-.92,1.43,3.56-1.63,5.75-2.3,6.66-2.07.5.13.92.43,1.16.86.19.33.37.87.18,1.58-.11.41-.43.91-.96,1.51,5.37-2.62,6.92-2.83,7.75-2.61.49.12.89.42,1.13.84.19.33.37.86.18,1.58-.19.69-.99,1.66-2.4,2.92.41-.06.72-.06.96,0,.52.13.94.44,1.2.88.24.42.3.93.17,1.43-.08.29-.25.64-.63,1.11,2.41-.93,4.02-1.28,4.86-1.07.56.14,1.02.48,1.29.94.24.41.3.9.17,1.39-.12.44-.62,1.07-1.51,1.89,4.47-2.06,7.23-2.93,8.35-2.64.53.14.97.46,1.22.9.23.4.29.89.16,1.36-.14.52-.31,1.15-2.99,3.2.77-.17,1.35-.2,1.75-.1.56.14,1.01.47,1.28.93.24.42.3.92.17,1.42-.06.22-.2.48-.43.78,10.16-5.41,11.23-5.13,12.05-4.92.48.12.88.42,1.11.83.18.32.36.85.17,1.54-.19.71-1.11,1.77-2.73,3.16,3.27-1.52,5.15-2.09,5.95-1.88.48.12.87.41,1.1.82.25.44.31.97.17,1.49-.11.39-.44.88-1.01,1.49,3.16-1.36,5.18-1.92,6.09-1.69.54.14.97.46,1.23.9.23.4.29.87.16,1.34-.15.56-.33,1.23-3.84,3.8,1.79-.63,3.03-.86,3.71-.68.55.14,1,.47,1.27.93.25.42.3.94.17,1.44-.15.56-.81,1.34-1.99,2.39,4.35-2.06,7.01-2.95,8.07-2.68.52.13.94.44,1.2.88.24.41.29.9.16,1.38-.18.65-1.19,1.7-3.08,3.18,2.15-.84,2.69-.71,3.14-.59.48.12.87.41,1.11.82.23.4.29.89.16,1.36-.13.49-.29,1.08-2.65,2.92,2.55-1.15,4.04-1.57,4.72-1.4.47.12.86.41,1.09.81.23.4.29.87.16,1.33-.09.34-.43.8-1.05,1.4,6.66-3.46,10.46-4.97,11.71-4.65.5.13.9.43,1.14.85.25.44.32.97.17,1.5-.09.32-.33.72-.74,1.19,2.75-1.23,4.37-1.71,5.07-1.52.47.12.85.41,1.09.81.24.42.3.93.17,1.43-.15.55-.76,1.31-1.9,2.33.86-.22,1.49-.27,1.9-.16.53.14.97.46,1.23.9.24.42.3.92.17,1.41-.22.8-1.53,2.12-4.01,4,2.94-1.33,4.77-1.88,5.57-1.68.5.13.9.43,1.14.85.23.4.29.87.16,1.33-.1.35-.44.82-1.06,1.43,5.52-2.8,8.71-4.01,9.83-3.72.49.12.89.42,1.13.84.25.43.31.95.17,1.46-.24.89-1.74,2.36-4.52,4.45,1.3-.48,2.14-.65,2.59-.53.46.12.84.4,1.07.8.26.44.32.98.17,1.51-.1.37-.39.82-.87,1.37,2.61-1.15,4.25-1.62,4.96-1.43.49.12.89.42,1.13.84.24.42.3.92.17,1.42-.16.58-.93,1.46-2.32,2.64,2.59-1.12,4.21-1.57,4.94-1.38.49.13.89.42,1.13.84.23.4.29.88.16,1.35-.12.43-.62,1.05-1.53,1.86,7.49-3.96,11.75-5.69,13.13-5.34.51.13.92.43,1.17.86.25.43.31.95.17,1.46-.23.85-1.65,2.27-4.27,4.28,1.47-.51,2.46-.7,3.01-.56.51.13.93.44,1.18.87.23.4.29.89.16,1.36-.13.47-.28,1.02-2.18,2.57,2.33-.93,3.85-1.29,4.6-1.1.52.13.95.45,1.21.89.25.43.31.94.17,1.44-.17.64-1.02,1.6-2.56,2.89,3.51-1.59,5.71-2.27,6.65-2.02.52.13.95.45,1.2.88.25.44.31.97.17,1.49-.09.32-.33.71-.72,1.18,3.71-1.65,6.02-2.34,7-2.09.52.13.95.45,1.2.89.24.42.3.92.17,1.42-.07.25-.25.55-.53.9,3.19-1.4,5.11-1.92,6.01-1.69.52.13.94.44,1.2.88.2.34.39.9.18,1.65-.12.44-.45.98-1,1.62,3.87-1.76,6.25-2.52,7.21-2.27.51.13.93.44,1.18.87.24.42.3.91.17,1.4-.17.64-1.12,1.65-2.86,3.05,1.36-.4,2.33-.53,2.93-.38.73.19,1.11.62,1.31.95.25.43.31.95.17,1.46-.08.29-.29.64-.65,1.06,3.29-1.41,5.37-2,6.29-1.76.53.13.96.45,1.21.89.24.41.3.91.17,1.39-.21.78-1.48,2.06-3.99,3.97,1.48-.47,2.21-.47,2.7-.35.51.13.93.44,1.18.87.24.41.3.91.17,1.4-.04.14-.11.29-.22.46,4.47-1.97,7.37-2.84,8.63-2.52.76.19,1.16.65,1.36.99.19.32.37.85.17,1.56-.17.62-.73,1.46-2.17,2.78,1.14-.31,1.76-.3,2.2-.19.52.13.95.45,1.2.88.26.45.32,1,.17,1.54-.06.22-.17.46-.35.74,2.29-.87,3.81-1.2,4.58-1,.54.14.98.46,1.24.91.2.34.39.91.18,1.67-2.17,7.88-75.24,49.25-195.33,116.46-28.29,15.83-57.96,32.43-84.4,47.45.69-.22,1.11-.25,1.41-.18.39.1.8.4,1,.75.41.72.17,1.63-.55,2.05-.31.18-.66.23-.99.18-3.51,1.05-27.05,15.34-46.03,26.87-33.48,20.33-39.05,23.45-40.82,23.45ZM287.98,395.93c-4.82,2.92-9.04,5.55-12.54,7.81,5.34-3.16,11.77-7.04,18.29-10.99-2.08,1.16-3.99,2.22-5.75,3.18ZM282.78,393.47c-4.98,3.14-8.81,5.69-11.23,7.51,3.26-1.41,8.32-4.02,14.83-7.58,13.81-8.42,33.33-19.74,58.83-34.22,19.99-11.95,42.16-25.37,64.46-38.92-4.51,2.54-9.03,5.08-13.53,7.61-56.3,34.18-95.39,57.25-113.37,65.59ZM290.7,383.23c-7.37,4.58-12.67,8.11-15.29,10.28,1.31-.44,3.04-1.16,5.16-2.14,7.92-5.03,20.09-12.37,38.8-23.23,21.44-12.44,47.34-27.12,75.43-42.94,15.7-9.53,31.75-19.32,47.36-28.87-1.23.69-2.46,1.38-3.68,2.07-24.59,13.83-50.25,28.25-73.8,41.63-35.06,21.26-59.38,35.58-73.98,43.2ZM297.64,372.89c-9.68,5.99-16.63,10.59-19.84,13.26,2.39-.88,6.1-2.67,10.91-5.19,7.77-4.86,18.9-11.54,34.86-20.82,12.1-7.03,25.63-14.78,40.19-23.05,23.5-14.25,49.2-30.04,73.86-45.2-19.32,10.94-39.34,22.29-58.44,33.21-16.4,9.88-31.82,19.11-45.31,27.05-16.59,9.76-28.14,16.34-36.23,20.74ZM304.68,362.87c-10.43,6.37-18.18,11.36-22.14,14.38,2.94-1.28,7.35-3.53,12.97-6.58,17.14-10.7,44.23-26.49,81.87-47.99,20.17-12.15,41.57-25.16,62.29-37.75-27.6,15.64-56.88,32.27-82.75,47.19-22.78,13.66-39.82,23.71-52.24,30.75ZM294.02,362.89c-6.44,4.11-11.17,7.36-13.74,9.53,4.27-1.83,12.26-6.12,22.89-12.15,12.86-7.88,30.52-18.24,53.15-31.27,24.4-14.63,51.71-31.22,77.75-47.04-11.04,6.2-22.28,12.52-33.42,18.81-57.64,35.28-92.11,55.75-106.62,62.13ZM348.19,362.92s0,0,0,0t0,0ZM348.18,362.92s0,0,0,0c0,0,0,0,0,0ZM306.77,350.01c-8.24,5.16-14.17,9.13-16.98,11.52.71-.26,1.56-.6,2.51-1.03,19.95-12.89,56.71-34.04,106.87-62.35,14.56-8.91,29.26-17.96,43.24-26.56.69-.43,1.39-.85,2.08-1.28-20.83,11.78-42.69,24.15-63.24,35.9-15.71,9.48-30.48,18.32-43.36,25.91-13.67,8.05-23.71,13.8-31.12,17.89ZM318.46,337.74c-13.02,7.68-22.96,13.81-28.02,17.44,3.39-1.55,8.42-4.19,14.75-7.7,7.99-5.02,19.1-11.73,34.52-20.76,12.13-7.1,25.77-14.96,40.26-23.24,8.29-5,16.8-10.15,25.36-15.34-15.07,8.48-30.21,17.02-44.38,25.08-17.53,10.46-31.81,18.73-42.49,24.52ZM314.59,333.35c-7.55,4.74-12.95,8.41-15.49,10.64,3.13-1.07,8.85-3.9,16.5-8.05,11.21-6.64,25.54-14.89,43.21-24.94,28.83-17.18,63.5-38.45,94.62-57.55.62-.38,1.25-.77,1.87-1.15-1.12.63-2.26,1.27-3.39,1.91-26.12,14.7-54.71,30.78-80.11,45.35-12.65,7.63-24.41,14.67-34.88,20.85-9.24,5.45-16.54,9.68-22.32,12.94ZM310.69,330.37c-6.13,3.81-10.89,6.94-13.89,9.17,3.72-1.79,9.42-4.89,16.6-8.96,7.42-4.68,17.72-10.9,31.99-19.25,7.76-4.54,16.18-9.4,25.06-14.49,13.04-7.86,26.77-16.19,40.4-24.48-8.81,4.97-17.67,9.98-26.36,14.92-35.43,21.51-59.65,35.79-73.81,43.08ZM327.53,314.03c-14.13,8.52-24.44,15.13-28.39,18.53,2.16-.79,5.47-2.36,9.72-4.58,15.08-9.47,39.55-23.65,74.02-43.22,19.78-12,40.69-24.83,60.12-36.76,2.37-1.45,4.7-2.89,7.01-4.3-2.47,1.39-4.97,2.81-7.52,4.25-26.26,14.84-55.18,31.19-80.25,45.67-14.57,8.74-25.96,15.44-34.71,20.4ZM424.42,252.37c-48.55,27.69-101.38,58.03-116.06,68.53,3.85-1.81,9.7-4.96,17.04-9.12,9.69-5.86,21.71-12.9,36.14-21.22,19.31-11.58,41.37-25.04,62.88-38.19ZM486.91,276.82c-15.33,9.3-30.7,18.65-45.41,27.6-4.32,2.63-8.65,5.26-12.98,7.9.92-.52,1.85-1.03,2.78-1.55,46.59-26.07,94.76-53.03,131.33-74.31,42.46-24.71,57.27-34.85,61.32-38.75-2.2.75-5.81,2.45-10.6,4.92-8.12,5.61-23.25,15-51.18,31.25-21.7,12.63-47.82,27.47-75.26,42.95ZM339.86,295.48c-12.29,7.31-21.81,13.2-26.89,16.82,15.54-7.39,62.75-35.99,106.47-62.67-18.75,10.65-37.64,21.41-54.36,31.09-9.74,5.81-18.13,10.72-25.22,14.76ZM458.96,220.03c-4.37,2.49-8.91,5.08-13.61,7.76-53.39,30.41-118.72,67.62-131.53,77.98,4.54-1.79,13.4-6.54,25-13.16,6.79-4.04,14.7-8.66,23.75-13.89,25.39-15.1,56.34-34.1,84.04-51.1,4.24-2.6,8.36-5.13,12.36-7.58ZM516.18,247.33c-24.78,15.03-51.14,31.24-75.59,46.26-1.14.7-2.27,1.4-3.4,2.09,25.77-14.49,53.57-30.12,79.48-44.86,18.47-11.23,35.58-21.54,50.51-30.37,17.66-10.45,29.41-17.12,37.29-21.34,6.12-3.96,10.43-6.99,12.46-8.87-3.32.96-10.02,4.24-19.22,9.23-14.51,9.32-41.11,24.83-81.52,47.87ZM412.32,241.62c-37.25,21.25-74.09,42.44-87.89,51.74,14.76-7.49,50.91-29.25,87.89-51.74ZM416.86,233.43c-40.74,22.96-82.85,46.84-95.21,55.77,13.83-6.4,55.29-31.42,95.21-55.77ZM518.03,253.51c-16.35,9.93-33.38,20.34-50.06,30.55,5.91-3.33,11.85-6.67,17.76-10.01,30.99-18.79,56.59-34.19,77.07-46.27-.28.16-.56.33-.84.49-13.21,7.7-28.09,16.24-43.92,25.24ZM427.21,221.81c-40.87,23.16-88.15,50.04-102.3,60.06,15.42-7.43,60.87-34.88,102.3-60.06ZM141.37,276.71c-2.62,1.86-4.55,3.37-5.67,4.49,3.98-1.25,13.01-5.93,25.35-12.89,11.54-7.43,31.64-19.28,63.2-37.4,22.57-13.69,46.68-28.5,69-42.22,1.53-.94,3.05-1.87,4.55-2.8-19.12,10.68-39.25,21.94-58.6,32.85-48.13,29.43-80.14,48.61-97.85,57.97ZM34.68,269.73c-7.37,4.54-12.95,8.18-16.13,10.61,4.99-2.25,14.12-7.26,25.96-14.09,10.12-6.31,24.34-14.71,42.81-25.37,15.35-9.24,31.91-19.31,48.38-29.35-19.23,10.83-38.64,21.8-56.08,31.8-18.95,11.43-33.84,20.21-44.94,26.41ZM332.22,200.94c-56.69,32.19-121.18,68.98-134.39,79.2,4.77-1.84,14.16-6.85,26.46-13.9,5.84-3.63,13.86-8.46,24.9-14.92,5.04-2.95,10.4-6.07,16.04-9.33,21.34-12.91,44.95-27.45,66.99-41.05ZM91.94,275.91c-2.27,1.64-3.92,2.97-4.89,3.97,3.53-.95,11.49-4.93,22.51-11.02,13.78-9.13,40.3-24.67,80.52-47.6,20.93-12.74,42.81-26.2,63.44-38.89-13.4,7.45-27.32,15.21-41.16,22.95-26.21,16.02-51.33,31.25-72.3,43.63-25.03,14.77-39.55,22.77-48.11,26.95ZM123.79,269.91c-7.04,4.34-12.27,7.76-15.14,9.95,4.76-1.81,14.03-6.65,26.38-13.58,12.76-7.9,32.14-19.21,58.82-34.47,22.76-13.65,47.55-28.73,71.39-43.27-2.39,1.35-4.81,2.72-7.25,4.1-25.27,14.28-51.77,29.26-75.43,42.81-25.71,15.54-45.15,27-58.77,34.47ZM266.15,268.96c-7.31,4.58-12.72,8.22-15.54,10.55,5.67-2.36,18.07-9.27,34.03-18.62,4.59-2.79,10.04-6.04,16.48-9.83,1.87-1.1,3.79-2.23,5.76-3.38,22.53-13.51,48.38-29.35,71.82-43.71,1.77-1.08,3.52-2.15,5.25-3.21-23.35,13.2-48.95,27.67-71.54,40.71-19.43,11.81-34.76,20.96-46.26,27.48ZM208.8,266.71c-8.85,5.39-15.75,9.77-19.9,12.74,16.96-8.33,68.98-39.88,118.42-69.98-20.49,11.69-41.42,23.66-60.05,34.49-15.46,9.33-28.24,16.91-38.46,22.75ZM140.06,272.31c-4.65,2.92-8.25,5.3-10.58,7.03,2.57-1.09,6.24-2.93,10.85-5.4,14.95-10.68,48.77-30.37,97.54-57.87,5.14-3.15,10.32-6.32,15.5-9.5-16.16,9.16-32.26,18.3-47.3,26.91-29.55,17.87-51.34,30.76-66,38.83ZM44.32,275.05c-2.35,1.59-4.25,2.96-5.63,4.06,15.17-6.9,71.37-40.94,124.13-73.01-14.28,8.01-28.83,16.18-42.73,24.07-36.17,22.03-60.84,36.76-75.77,44.88ZM155.91,216.3c-46.4,26.26-92.16,52.4-106.7,62.6,15.9-7.9,60.79-34.82,106.7-62.6ZM77.84,272.4c-3.84,2.46-6.8,4.48-8.73,5.97,14.2-5.83,67.07-37.73,122.48-71.61-15.1,8.46-30.05,16.86-44.09,24.82-32.05,19.38-55.02,32.92-69.67,40.83ZM240.96,271.45c-4.47,2.89-7.85,5.24-9.85,6.9,14.67-5.97,75.62-43.28,127.26-74.96-14.27,8.03-29.13,16.4-43.48,24.55-33.55,20.27-57.92,34.71-73.93,43.51ZM136.4,268.93c-6.49,3.99-11.45,7.2-14.45,9.39,3.55-1.53,9.13-4.43,16.27-8.39,12.44-7.9,33.58-20.3,66.27-39.01,14.01-8.47,28.8-17.48,43.61-26.53-17.68,10.01-35.48,20.1-51.98,29.55-10.45,6.27-20.4,12.2-29.6,17.61-12.37,7.28-22.24,12.96-30.13,17.37ZM45.41,269.19c-6.15,3.82-10.91,6.92-13.85,9.09,2.75-1.25,6.68-3.29,11.54-5.96,12.64-8.65,37.53-23.24,75.58-44.8,9.14-5.57,18.47-11.27,27.78-16.97-19.89,11.27-40.09,22.77-58.03,33.14-17.64,10.63-31.89,19.09-43.03,25.5ZM191.19,271.04c-4.48,2.86-7.89,5.18-9.99,6.82,4.79-1.89,14.22-6.96,26.6-14.06,9.78-5.97,22.38-13.4,37.86-22.39,20.8-12.54,43.99-26.78,65.94-40.29-15.51,8.77-31.58,17.88-46.94,26.65-33.61,20.39-57.83,34.76-73.47,43.27ZM427.05,210.14c-1.31.75-2.63,1.5-3.96,2.26-43.83,25-97.16,55.41-110.48,65.28,5.17-2.26,14.69-7.5,26.77-14.51,8.24-5.08,18.9-11.4,32.07-19.06,17.91-10.82,37.47-22.83,55.6-33.96ZM349.58,203.39c-1.49.84-3,1.7-4.51,2.55-51.24,28.98-108.55,61.4-122.64,71.69,3.74-1.62,9.72-4.73,17.36-8.96,13.74-8.96,38.01-23.11,73.57-43.3,11.95-7.21,24.2-14.66,36.22-21.97ZM361.87,207.64c-50.42,28.91-103.1,59.25-117.13,69.29,4.25-1.88,11.19-5.6,19.98-10.61,10.76-6.79,26.16-15.89,46.4-27.56,16.45-10,34.04-20.82,50.75-31.13ZM110.51,271.73c-3.24,2.13-5.73,3.88-7.33,5.18,3.7-1.37,10.48-4.82,19.49-9.81,12.68-7.86,31.81-19.04,58.07-34.06,22.04-13.3,46.2-28.11,69.2-42.24-19.47,10.99-39.39,22.25-58.07,32.91-35.47,21.6-63,38.01-81.35,48.04ZM177.58,273.24c-2.09,1.46-3.72,2.68-4.83,3.65,3.29-1.2,9.32-4.26,17.37-8.68,13.82-8.9,37.92-22.99,73-43.01,15.57-9.44,31.72-19.31,47.3-28.85-12.33,6.88-25.09,14-37.64,21.04-46.27,27.99-77.47,46.48-95.2,55.85ZM171.4,271.14c-3.57,2.37-6.27,4.3-7.92,5.71,2.72-1.05,7.15-3.25,12.94-6.35,13.71-9.63,44.8-27.6,94.83-55.68,14.04-8.49,28.31-17.17,42.07-25.54-1.41.79-2.84,1.59-4.28,2.4-18.05,10.1-37.34,20.9-55.81,31.34-37.94,22.97-64.88,38.94-81.84,48.13ZM37.29,262.48c-10.52,6.3-18.49,11.3-22.66,14.34,4.04-1.74,10.72-5.28,19.28-10.1,10.49-6.47,24.96-14.95,43.58-25.62,16.81-10.12,35.17-21.34,53.09-32.34-23.48,13.32-47.52,26.98-67.81,38.75-9.7,5.8-18.18,10.79-25.48,14.97ZM183.72,206.07c-52.51,29.48-108.3,60.94-121.09,70.71,2.98-1.24,7.58-3.58,13.5-6.8,7.34-4.74,19.06-11.83,37.77-22.65,9.95-5.76,20.96-12.04,32.75-18.72,11.93-7.21,24.42-14.81,37.07-22.53ZM225.88,193.53c-62.33,34.94-130.12,73.02-142.67,83.05,1.83-.64,4.43-1.81,7.7-3.44,16.41-11.91,58.33-35.95,119.69-70.26,5.1-3.11,10.2-6.24,15.29-9.35ZM409.37,197.78c-3.09,1.76-6.2,3.53-9.34,5.31-49.92,28.37-110.82,62.97-124.61,73.45,16.37-6.96,79.49-45.5,131.19-77.07.92-.56,1.84-1.12,2.75-1.68ZM161.83,271.34c-3.25,2.08-5.83,3.82-7.65,5.16,3.49-1.46,9.02-4.29,16.13-8.19,13.97-9.35,40.77-24.94,81.4-47.88,14.83-8.98,30.11-18.28,44.93-27.33-23.59,13.39-48.25,27.38-70.42,40.12-27.9,16.94-49.2,29.61-64.38,38.12ZM395.65,211.6c-45.52,26.1-94.6,54.31-109.96,64.88,16.89-8.19,66.17-38.14,109.96-64.88ZM356.21,240.37c-25.5,14.5-48.73,27.9-61.15,35.72,12.76-6.9,35.55-20.37,61.15-35.72ZM393.87,223.12c-38.46,21.78-77.3,44.06-89.22,52.73,13.29-6.34,51.32-29.47,89.22-52.73ZM285.49,263.9c-8.22,4.98-14.71,9.08-18.73,11.9,16.72-8.18,66.55-38.31,111.08-65.35-24,13.65-49.38,28.12-70.24,40.32-8.24,4.94-15.6,9.32-22.12,13.13ZM224.78,269.44c-4.06,2.53-7.33,4.64-9.66,6.27,16.83-7.54,72.44-41.08,124.56-72.78-.49.28-.98.56-1.47.83-24.22,13.76-49.79,28.29-71.58,40.89-17.03,10.32-30.93,18.57-41.85,24.79ZM340.33,266.1c-6.3,3.87-11.38,7.12-14.8,9.52,15.75-7.96,58.97-34.21,99.22-58.72-17.47,9.98-35.67,20.4-51.88,29.85-12.81,7.75-23.63,14.19-32.55,19.36ZM22.74,264.42c-7.83,4.85-13.59,8.66-16.49,11,5.15-1.92,16.21-7.89,30.8-16.3,6.51-3.9,14.19-8.4,23.08-13.56,26.02-15.5,57.33-34.73,85.93-52.32-17.5,9.89-36.21,20.46-54.1,30.67-33.3,20.2-56.01,33.62-69.23,40.51ZM517.35,235.07c-20.51,12.3-42.48,25.61-63.67,38.47,28.79-16.31,58.83-33.34,84.69-48.24,5.32-3.17,10.44-6.2,15.31-9.06,9.72-5.72,17.72-10.35,24.32-14.1,12.74-7.62,22.26-13.57,26.98-17.02-3.68,1.58-9.52,4.6-17.01,8.72-13.88,8.76-37.03,22.19-70.61,41.23ZM540.74,227.39c-22.21,13.22-47.68,28.63-73.05,44.03,15.75-8.92,31.63-17.92,46.77-26.56,36.07-21.9,63.74-38.29,81.72-47.94,3.59-2.28,6.46-4.19,8.52-5.67-4.89,2.19-13.26,6.7-24.11,12.86-10.23,6.13-23.37,13.8-39.84,23.29ZM36.23,250.45c-11.39,6.99-19.8,12.49-23.54,15.62,1.92-.8,4.62-2.12,7.97-3.88,14.63-9.15,37.71-22.57,69.77-40.85,16.93-10.26,34.65-21.11,51.18-31.23,6.73-4.12,13.18-8.06,19.36-11.84-2.29,1.3-4.63,2.63-7.01,3.98-27.83,15.81-60.5,34.35-87.61,50.22-11.83,7.17-21.83,13.14-30.12,17.98ZM540.63,203.87c-25.29,15.1-56.38,34.18-85.64,52.14-5.06,3.11-10.02,6.15-14.87,9.12,15-8.44,29.96-16.87,44.33-25.03,44.58-26.99,75.65-45.5,94.54-55.87,6.22-4.11,9.59-6.64,11.34-8.2-4.5,1.8-13.87,6.89-26.37,14.1-6.42,3.88-14.18,8.44-23.33,13.74ZM33.81,246.88c-9.96,5.94-17.89,10.82-22.74,14.09,5.21-2.56,13.3-7.09,23.29-12.92,8.71-5.38,19.45-11.77,32.04-19.12,10.31-6.24,21.27-12.94,32.36-19.74-10.5,6.01-20.87,11.97-30.66,17.63-5.41,3.23-10.63,6.32-15.59,9.24-7.28,4.28-13.45,7.85-18.71,10.83ZM523.43,225.56c-18.15,10.96-37.76,22.97-56.9,34.73,16.59-9.32,33.31-18.73,49.07-27.66,32.09-19.26,55.58-33.04,71.12-41.52,5.75-3.6,10-6.44,12.37-8.33-3.27,1.2-8.9,4.03-16.33,8.08-12.95,7.99-32.49,19.38-59.32,34.7ZM132.53,184.29c-2.71,1.54-5.48,3.12-8.3,4.73-48.17,27.42-101.99,58.06-116.25,68.21,5-2.2,13.7-6.89,24.73-13.18,2.83-1.69,5.92-3.52,9.32-5.52,7.09-4.18,14.99-8.77,23.39-13.63,21.27-12.68,45.22-27.25,67.11-40.61ZM486.59,242.31c-6.26,3.79-12.55,7.61-18.81,11.4,18.23-10.31,36.68-20.76,53.77-30.53,26.7-16.15,46.49-27.79,59.89-35.03,6.44-3.96,11.43-7.16,14.56-9.41-3.43,1.56-8.54,4.23-14.98,7.78-16.07,10.73-46.6,28.61-94.43,55.78ZM109.62,191.86c-39.95,22.92-82.34,47.32-98.23,57.77,16.83-8.56,58.53-33.67,98.23-57.77ZM495.34,224.67c-12.93,7.77-26.35,15.9-39.62,23.96,29.23-16.45,59.8-33.67,83.9-47.64,9.12-5.46,16.9-10.04,23.46-13.82,8.7-5.25,15.3-9.42,18.96-12.1-3.88,1.68-10.16,4.96-18.23,9.44-13.84,8.78-36.48,21.97-68.47,40.17ZM574.98,173.39c-14.43,6.2-67.23,38.41-117.85,69.47,12.24-6.9,24.65-13.92,36.63-20.74,30.77-18.52,53.51-31.93,68.85-40.38,5.6-3.53,9.85-6.37,12.37-8.34ZM111.04,185.53c-40.55,22.97-84.46,47.91-97.09,56.91,13.96-6.25,56.66-32.14,97.09-56.91ZM569.17,170.32c-15.31,6.66-70.17,39.98-119.67,70.23,51.55-29.14,106.42-60.28,119.67-70.23ZM90.6,191.79c-32.09,18.37-64.26,36.91-77.65,45.68,14.13-7.23,45.75-26.25,77.65-45.68ZM522.23,190.83c-20.47,12.12-45.09,27.09-68.65,41.47,47.2-26.92,95.71-54.74,110.37-64.94-6.26,2.97-17.34,9.18-31.16,17.25-3.3,1.96-6.83,4.03-10.57,6.22ZM92.34,185.48c-31.12,17.84-64.18,36.85-77.74,45.62,14.01-6.99,45.71-26.07,77.74-45.62ZM564.94,160.86c-14.96,6.92-64.16,37.02-110.08,65.2,22.85-12.99,46.32-26.4,65.95-37.89,3.59-2.12,6.97-4.12,10.15-5.98,16-9.48,28.36-17.13,33.99-21.34ZM85.72,183.23c-28.09,16.27-55.83,32.44-70.05,41.47,14.7-8.03,42.09-24.5,70.05-41.47ZM605.9,201.7c-7.05,4.58-17.29,10.88-32.14,19.64,16.76-9.77,29.42-16.87,38.21-21.33,2.36-1.62,4.22-2.98,5.51-4.06-2.55,1.04-6.49,3.01-11.58,5.75ZM104.07,166.89c-33.77,19.49-74.08,42.76-89.66,53.07,16.36-8.47,55.5-32.25,89.66-53.07ZM105.47,160.2c-2.52,1.46-5.12,2.97-7.8,4.52-33.2,19.22-73.05,42.28-87.69,52.23,16.1-8.28,56.92-33.2,90.91-53.95,1.55-.95,3.08-1.88,4.59-2.8ZM503.94,183.97c-16.42,9.84-35.28,21.33-53.76,32.62,40.5-23.11,82.89-47.52,96.65-57.21-4.95,2.46-12.77,6.84-22.45,12.49-5.76,3.5-12.57,7.53-20.44,12.1ZM549.33,163.55c-14.94,7.59-50.67,29.05-86.15,50.61,36.34-20.73,72.23-41.37,86.15-50.61ZM471.82,178.96c-17.46,10.54-36.52,22.24-54.41,33.23,1.38-.79,2.78-1.58,4.19-2.39,43.16-24.61,95.65-54.55,109-64.36-2.96,1.3-7.34,3.56-12.79,6.57-10.05,6.22-24.96,14.93-45.99,26.96ZM542.75,150.59c-15.34,7.43-61.65,35.51-102.59,60.43,41.79-23.69,88.84-50.5,102.59-60.43ZM541.62,157.26c-14.06,7.19-51.58,29.88-88.05,52.04,17.35-9.81,34.72-19.69,49.65-28.39,7.22-4.32,13.59-8.1,19.16-11.35,8.47-5.12,15.17-9.37,19.25-12.31ZM523.68,139.2c-15.41,7.13-68.63,39.64-116.33,68.77,15.23-8.62,31.27-17.72,46.48-26.45,24.88-14.93,42.83-25.55,55.39-32.69,6.49-4.05,11.48-7.35,14.46-9.63ZM51.65,186.04c-12.31,7.18-23.74,13.92-32.4,19.22,8.74-5.03,20.09-11.79,32.4-19.22ZM242.23,161.52c-20.53,12.32-42.7,25.78-63.5,38.43,22.7-12.83,47.35-26.76,69.67-39.57,13.23-7.94,25.73-15.38,36.88-21.93,7.25-4.26,13.48-7.87,18.83-10.92,6.45-4.02,11.36-7.27,14.23-9.47-3.12,1.37-7.92,3.85-14.03,7.21-12.56,7.95-33.09,19.85-62.08,36.27ZM257.77,169.72c-9.24,5.66-18.52,11.35-27.74,17-6.9,4.23-13.58,8.32-20.02,12.27,6.51-3.65,13.27-7.44,20.3-11.39,21.11-11.83,42.56-23.86,63.06-35.43,57.65-35.23,94.31-57.16,112.58-66.42,6.01-4.07,8.93-6.42,10.24-7.77-1.85.5-5.4,1.96-12.08,5.34-14.2,11.69-66.42,41.6-146.35,86.4ZM250.34,162.72c-19.28,11.56-39.74,23.95-59.12,35.69,20.84-11.7,43.35-24.33,64.28-36.24,29.85-18.22,55.8-33.97,77.37-46.81-5.43,2.49-15.1,7.79-27.53,14.91-12.18,7.64-30.41,18.34-55,32.45ZM454.45,184.63c-7.2,4.32-14.56,8.76-21.97,13.23,12.56-7.1,25.44-14.39,37.59-21.35,19.89-12.02,34.99-20.92,45.67-26.78,4.71-2.9,8.59-5.38,11.42-7.32-4,2.03-9.68,5.15-16.61,9.1-12.82,8.07-31.82,19.2-56.1,33.12ZM212.6,162.05c-18.38,11.15-37.86,23.11-56.14,34.34,19.24-10.83,39.61-22.31,58.58-33.14,28.35-17.14,49.91-29.94,65.18-38.52,5.1-3.28,8.88-5.89,11-7.68-3.8,1.47-10.92,5.2-20.33,10.5-12.77,8.06-32.08,19.43-58.28,34.5ZM438.24,158.19c-19.49,11.72-41.21,25-61.86,37.67,50.71-29.07,105.91-60.76,121.07-71.38-4.43,2.01-11.51,5.81-20.44,10.89-9.53,5.87-22.41,13.43-38.77,22.82ZM500.16,129.15c-13.93,5.66-64.98,36.83-111.98,65.79,48.07-27.18,99.94-56.59,111.98-65.79ZM413.67,154.53c-20.79,12.55-44.11,26.9-66,40.4,53.48-30.4,114.07-64.99,127.28-75.11-3.49,1.41-9.3,4.42-16.81,8.6-5.61,3.41-12.67,7.62-21.56,12.82-7.08,4.14-14.75,8.59-22.9,13.28ZM487.42,118.64c-15.96,7.54-73.03,42.3-124.06,73.38-1,.61-1.99,1.21-2.98,1.82,54.01-30.58,113.18-64.33,127.04-75.2ZM234.28,142.92c-24.51,14.67-54.23,32.95-82.24,50.17-.35.22-.7.43-1.06.65,19.99-11.34,40.94-23.24,60.23-34.35,25.38-15.42,44.66-26.89,58.3-34.52,7.1-4.46,12.38-7.99,15.2-10.26-5.61,2.31-17.58,8.95-33.23,18.12-4.91,2.97-10.64,6.36-17.22,10.21ZM506.17,132.03c-15.19,7.06-61.08,34.86-104.67,61.52,44.78-25.47,90.96-51.88,104.67-61.52ZM416.26,147.1c-23.21,13.76-50.27,30.15-76.31,46,.58-.33,1.16-.66,1.73-.98,23.7-13.45,48.6-27.6,70.51-40.21,19.07-11.53,33.86-20.24,44.66-26.2,7.57-4.6,13.4-8.29,16.89-10.76-6.71,2.93-20.05,10.29-37.15,20.21-5.97,3.55-12.75,7.52-20.33,11.94ZM530.02,152.05c-12.56,6.52-38.52,22.14-66.6,39.3,28.24-16.17,54.65-31.49,66.6-39.3ZM387.77,157.91c-17.22,10.46-35.45,21.66-52.92,32.41,26.99-15.37,55.1-31.4,78.58-45.05,8.58-5.1,16.28-9.62,23.12-13.59,14.28-8.5,24.96-15.15,29.78-18.75-3.29,1.33-8.56,4.02-15.32,7.73-6.71,4.24-16.39,10.09-30.35,18.26-9.85,5.76-21,12.19-32.89,18.99ZM216.48,165.87c-12.79,7.73-26.01,15.77-39,23.68,15.79-8.93,31.93-18.08,47.22-26.8,33.04-20.04,56.82-34.12,72.18-42.44,2.81-1.81,5.11-3.34,6.8-4.57-4.57,1.99-12.38,6.17-22.44,11.86-12.87,8.33-34.27,20.89-64.76,38.27ZM226.32,165.28c-12.19,7.39-24.78,15.07-37.2,22.67,17.18-9.62,34.79-19.48,51.22-28.79,28.59-17.17,49.38-29.37,62.97-36.75,5.03-3.16,8.8-5.69,11.02-7.44-3.34,1.28-9.05,4.17-16.52,8.26-12.81,8.28-36.14,21.89-71.5,42.05ZM256.97,164.79c-11.36,6.94-22.65,13.85-33.56,20.52-1.3.79-2.58,1.58-3.86,2.36.91-.51,1.81-1.01,2.72-1.52,11.06-6.19,22.49-12.57,34-19.02,71.81-43.95,122.61-74.56,146.84-86.63.35-.3.65-.58.91-.84-7.68,2.24-34.41,17.38-68.48,37.62-9.11,7.35-34.81,22.62-78.57,47.5ZM325.3,148.1c-20.19,12.29-41.19,25.2-60.85,37.28-.97.6-1.95,1.2-2.91,1.79,30.24-17.09,63.03-35.64,91.4-52.02,23.29-14.06,41.37-24.81,54.75-32.45,8.74-5.46,14.99-9.64,17.85-12.1-3.08,1.07-8.55,3.78-15.86,7.74-15.29,9.97-43.11,26.24-84.38,49.76ZM505.08,138.38c-14.58,7.53-47.73,27.37-82.91,48.67,35.12-20,69.08-39.53,82.91-48.67ZM367.28,146.94c-19.53,11.82-40.53,24.69-60.58,37.01,30.09-17.08,62.35-35.43,88.48-50.67,9.48-5.67,17.78-10.58,24.97-14.76,12.22-7.36,21.31-13.1,25.55-16.34-2.29.93-5.59,2.53-9.71,4.7-13.72,8.69-36.44,21.84-68.71,40.07ZM506.17,143.43c-13.74,7.47-39.93,23.22-67.83,40.19,28.68-16.54,54.79-31.79,67.83-40.19ZM327.93,159.17c-13.26,8.06-26.74,16.29-39.84,24.3,12.7-7.18,25.79-14.6,38.7-21.94,48.57-29.67,84.37-51.09,104.76-61.76,1.21-.83,2.25-1.58,3.09-2.22-2.77,1.12-6.99,3.21-12.39,6.09-8.41,5.41-20.97,13.06-39.67,24.03-16.14,9.46-34.84,20.21-54.64,31.49ZM353.84,138.11c-21.97,13.26-45.97,27.91-68.93,41.93-.74.45-1.48.9-2.22,1.35,14.62-8.27,29.58-16.76,44.16-25.07,45.51-27.66,76.33-45.98,94.03-55.32,5.83-3.74,10.2-6.72,12.72-8.77-4.58,1.98-13.14,6.63-24.46,13.1-12.59,7.91-30.93,18.73-55.3,32.77ZM491,122.75c-14.29,7.03-55.58,31.92-97.56,57.45,14.79-8.34,29.38-16.61,42.68-24.24,16.61-10,29.97-17.88,40.27-23.7,6.4-3.94,11.42-7.18,14.61-9.51ZM378.76,158.11c-11.54,7-23.52,14.32-35.48,21.64,14.67-8.31,29.35-16.63,43.16-24.53,28.65-17.42,49.58-29.82,63.47-37.36,4.48-2.82,7.99-5.15,10.31-6.88-1.76.78-4.02,1.9-6.71,3.31-13.64,8.96-38.29,23.27-74.75,43.82ZM39.28,170.7c-5.11,3.02-9.97,5.91-14.3,8.54,4.34-2.56,9.18-5.45,14.3-8.54ZM395.73,136.45c-21.41,12.8-46.19,27.89-70.46,42.7,24.53-13.74,50.07-28.11,71.96-40.72,7.11-4.26,13.86-8.28,20.17-12,6.07-3.58,11.36-6.67,15.96-9.32,9.47-5.81,16.43-10.38,19.79-13.15-5.42,2.32-16.8,8.62-31.78,17.34-5.49,3.31-12,7.17-19.71,11.69-1.93,1.13-3.91,2.29-5.92,3.46ZM328.02,164.29c-7.99,4.88-16.02,9.8-23.98,14.68,20.47-11.43,41.67-23.28,61.35-34.39,32.85-19.9,55.62-33.28,69.26-40.34,6.12-3.84,10.54-6.83,12.79-8.74-2.81.92-7.7,3.25-14.21,6.7-6.56,4.57-19.42,12.59-44.67,27.34-17.47,10.2-38.41,22.18-60.54,34.75ZM316.55,147.21c-16.85,10.29-34.38,21.06-51.51,31.6,19.29-10.89,39.52-22.33,58.78-33.32,39.76-24.22,67.58-40.77,84.63-49.89,5.01-3.24,8.7-5.8,10.73-7.52-1.96.69-4.86,2.03-8.56,3.91-15.46,10.6-48.03,29.38-94.08,55.21ZM187.29,158.46c-10.83,6.56-22.1,13.45-33.31,20.32,45.32-25.73,91.59-52.03,104.64-61.16-4.24,1.83-11.19,5.5-20.01,10.48-10.89,6.79-27.48,16.57-51.33,30.35ZM267.43,119.1c-14.54,6.86-56.3,32.05-97.36,57.12,23.01-13.03,45.65-25.92,63.7-36.48,5.85-3.5,11.22-6.68,16.11-9.54,7.76-4.68,13.82-8.49,17.56-11.1ZM398.49,141.18c-17.33,10.38-36.54,22.03-55.67,33.66,11.6-6.48,23.3-13.04,34.62-19.42,36.03-21.87,60.34-36.24,74.11-43.39,4.12-2.66,7.29-4.85,9.33-6.48-4.82,2.17-13.82,7.12-25.59,13.91-9.33,5.76-21.57,12.96-36.81,21.73ZM225.66,114.75c-14.33,6.87-57.35,33.06-97.97,57.89,40.8-23.14,85.11-48.46,97.97-57.89ZM241.2,117.03c-15.54,8-54.27,31.36-92.77,54.75,38.84-22.17,78.28-44.9,92.77-54.75ZM197.04,120.32c-15.39,8.17-50.74,29.6-84.08,49.87,33.99-19.52,69.69-40.19,84.08-49.87ZM294.94,154.72c-6.94,4.25-13.93,8.52-20.89,12.79,13.87-7.72,27.8-15.5,41.26-23.06,14.7-8.97,27.79-16.91,39.35-23.84-16.96,9.86-36.96,21.25-59.72,34.1ZM227.31,119.21c-14.29,7.47-46.42,27.01-78.71,46.8,33.27-19.17,65.39-37.91,78.71-46.8ZM245.81,119.96c-14.23,7.63-44.25,25.75-76.73,45.54,5.59-3.21,11.12-6.4,16.51-9.51,21.97-13.33,39.06-23.49,51.6-30.53,3.35-2.08,6.25-3.92,8.63-5.49ZM210.08,118.18c-13.83,7.28-45.38,26.49-76.35,45.46,32.2-18.5,63.61-36.79,76.35-45.46ZM153.89,116.27c-14,7.44-44.73,26.3-70.51,42.12-2.65,1.63-5.21,3.2-7.68,4.71,29.32-17.07,64.14-37.35,78.19-46.83ZM156.99,120.34c-14.13,7.48-44.37,25.97-70.93,42.26,27.33-15.84,57.67-33.5,70.93-42.26ZM168.37,119.56c-13.2,7.31-35.47,20.68-57.83,34.24,22.65-13.13,45.06-26.21,57.83-34.24ZM134.73,116.73c-13.55,7.51-38.58,22.8-60.24,36.04,22.98-13.38,47.58-27.8,60.24-36.04ZM137.76,120.33c-11.36,6.24-31.26,18.34-50.54,30.17,19.55-11.35,39.65-23.13,50.54-30.17ZM124.13,117.1c-11.25,6.27-29.71,17.47-47.34,28.24,17.68-10.29,36.43-21.27,47.34-28.24ZM176.48,126.74c-7.23,4.21-15.93,9.4-25.35,15.07,9.55-5.6,18.24-10.76,25.35-15.07ZM173.3,122.92c-8.12,4.67-18.52,10.86-29.91,17.73,11.47-6.69,21.9-12.85,29.91-17.73ZM362.88,106.31c-2.73,1.59-5.59,3.27-8.59,5.04-.93.55-1.88,1.11-2.83,1.67,3.97-2.32,7.78-4.56,11.42-6.71ZM407.97,87.99c-6.25,4.31-14.85,9.74-25.65,16.27,11.51-6.67,20.48-11.62,27.04-14.9,3.23-2.19,5.62-3.96,7.04-5.25-1.89.67-4.75,1.99-8.43,3.88Z"/>
  <g>
    <path class="cls-1" d="M180.3,117.83c-.13,0-.25-.02-.41-.06-.31-.08-.58-.25-.78-.49-.16-.18-.79-.8-1.45-1.45-.43-.43-.77-.76-1.03-1.03-.77.46-1.08.59-1.64.45-.05-.01-.09-.03-.14-.04-.49-.08-2.28-.25-3.61-.37-2-.19-3.21-.3-3.98-.41-.05.03-.11.07-.17.1-.94.58-1.29.8-1.87.68-.72.03-3.61.37-5.75.62-3.93.46-5.91.67-6.96.69-.22.03-.45.01-.66-.05-.24-.05-.39-.13-.51-.24-.54-.23-1.91-.76-2.86-1.12-.83-.32-1.43-.55-1.87-.73-.03.02-.06.04-.09.06-.95.58-1.27.77-1.91.61-.03,0-.07-.02-.1-.03-.45-.08-2.1-.25-3.32-.37-1.88-.19-3.04-.31-3.78-.43-.08.05-.17.1-.26.16-.94.57-1.26.76-1.88.61-.74-.02-3.31.24-5.24.42-2.79.26-4.36.41-5.29.41-.03.02-.06.04-.09.06-.58.36-.99.62-1.63.46-.4-.1-.74-.35-.94-.71-.05-.09-.9-1.53-1.64-2.79-.12-.2-.24-.4-.35-.59-.95.57-1.21.67-1.76.53-.83,0-4.18.38-6.42.63-2.72.3-4.27.48-5.2.5-.1.06-.23.14-.35.21-.98.6-1.3.8-1.95.63-.06-.01-.11-.03-.17-.05-.5-.1-2.36-.34-3.73-.52-1.74-.22-2.83-.36-3.54-.49-.15.09-.33.2-.52.31-1.6.96-1.77,1.06-2.41.89-.04-.01-.09-.03-.13-.04-.45-.09-2.16-.32-3.43-.49-1.79-.24-2.91-.39-3.63-.52-.09.05-.18.11-.27.17-.85.52-1.2.74-1.78.62-.72.02-3.55.34-5.65.58-2.96.34-4.61.53-5.59.55-.07.05-.15.1-.24.15-.82.51-1.19.74-1.84.57-.16-.04-.31-.11-.44-.19-.28-.14-1.35-.62-2.14-.97-1.02-.45-1.72-.77-2.21-1-.28.14-.61.22-1.03.12-.15-.03-.29-.09-.41-.16-.39-.15-1.83-.63-2.9-.98-1.44-.47-2.37-.77-2.98-1-.42.24-.99.58-1.45.85q-2.74,1.62-3.38,1.45c-.18-.05-.34-.12-.49-.23-.34-.18-1.67-.79-2.57-1.19-.9-.41-1.53-.7-1.99-.91-.49.28-1.17.68-1.76,1.03q-3.37,1.98-4.01,1.81c-.15-.04-.3-.1-.43-.19-.36-.16-1.65-.66-2.62-1.03-1.08-.41-1.81-.7-2.32-.9-.42.24-.99.58-1.46.86q-2.68,1.58-3.32,1.42c-.39-.1-.72-.36-.92-.7q-.09-.15-.87-2.29c-.1-.26-.19-.52-.28-.77-.6.35-1.28.75-1.87,1.09q-3.63,2.13-4.27,1.96c-.16-.04-.31-.11-.45-.2-.27-.14-1.3-.62-2.06-.98-.97-.46-1.65-.77-2.12-1-.62.36-1.58.92-2.41,1.41q-3.79,2.22-4.43,2.05c-.21-.06-.4-.16-.57-.29-.26-.17-1.23-.75-1.95-1.18-.66-.4-1.15-.69-1.52-.91-.93.57-1.24.76-1.88.6l.37-1.45,1.29-.76-1.3.75-.63-1.35c.11-.06.35-.21.59-.36.98-.6,1.31-.81,1.96-.64.22.06.42.16.59.3.27.18,1.29.79,2.05,1.24.62.37,1.08.64,1.43.85.66-.38,1.67-.97,2.48-1.45q3.66-2.14,4.29-1.98c.18.05.34.13.49.23.34.18,1.65.8,2.54,1.21.69.32,1.2.56,1.59.75.62-.36,1.57-.92,2.4-1.4q3.91-2.29,4.55-2.12c.39.1.72.36.92.7.09.16.1.17,1.01,2.65.05.13.1.27.15.4.22-.13.43-.25.63-.37q2.66-1.57,3.3-1.41c.16.04.3.11.43.19.36.17,1.67.67,2.65,1.04,1.06.41,1.78.68,2.29.89.58-.33,1.46-.85,2.17-1.27q3-1.76,3.63-1.59c.17.04.33.12.47.22.32.17,1.52.71,2.4,1.11,1,.45,1.69.77,2.17,1,.44-.25,1.02-.6,1.5-.88q2.63-1.55,3.26-1.39c.14.04.28.09.4.17.43.18,2.1.72,3.23,1.09,1.21.4,2.03.66,2.58.86.31-.16.66-.27,1.12-.16.18.04.35.12.51.23.35.18,1.71.79,2.63,1.2.73.33,1.27.57,1.67.75.71-.44,1.06-.64,1.63-.54.69-.02,3.39-.33,5.39-.56,3.14-.36,4.87-.56,5.88-.58.1-.06.21-.13.33-.2.99-.61,1.32-.81,1.97-.65.05.01.11.03.16.05.49.1,2.35.35,3.73.53,1.61.21,2.63.35,3.31.47.21-.12.47-.28.73-.44,1.35-.81,1.56-.93,2.19-.77.05.01.1.03.15.05.48.1,2.29.33,3.63.5,1.81.23,2.93.38,3.65.51.08-.05.17-.1.25-.15.89-.54,1.22-.74,1.79-.63.65-.02,3.05-.29,5-.51,3.76-.42,5.71-.64,6.79-.64h0c.17-.1.39-.23.59-.36,1.17-.7,1.41-.85,2.04-.68.39.1.72.35.92.7.03.06.54.91,1.1,1.87.31.52.63,1.07.91,1.54.25-.08.5-.11.81-.04.68,0,3.17-.23,5.03-.4,2.95-.27,4.57-.41,5.53-.42.09-.06.2-.12.31-.19,1-.6,1.3-.79,1.93-.62.05.01.1.03.14.04.52.09,2.5.3,3.83.43,1.56.16,2.56.26,3.22.36.08-.05.16-.1.24-.15.97-.59,1.3-.79,1.93-.62.14.04.27.09.39.16.3.13,1.39.55,2.28.89,1.67.64,2.59.99,3.13,1.24.9-.03,4.07-.41,6.44-.69,3.2-.38,4.95-.58,5.97-.61.13-.08.28-.17.43-.26.89-.54,1.22-.75,1.86-.59.06.01.11.03.17.05.55.1,2.59.29,3.97.41,1.77.16,2.87.27,3.58.37.09-.06.2-.12.3-.18.91-.55,1.22-.74,1.85-.58.31.08.59.26.8.51.19.2,1.08,1.09,1.73,1.74.29.29.54.53.74.73.02-.01.05-.03.07-.04,1.49-.9,1.69-1.02,2.33-.85.54.03,2.46,0,3.89-.02,2.5-.04,3.93-.06,4.79,0,.21-.12.48-.29.76-.45,1.65-.99,1.79-1.07,2.43-.91.09.02.19.06.27.1.45.14,2.23.56,3.43.84,1.31.31,2.18.51,2.77.67.21-.12.46-.27.7-.42,1.58-.95,1.75-1.05,2.39-.88.06.02.12.04.18.06.43.1,2.04.4,3.24.62,1.59.29,2.6.47,3.27.62.72-.41,2.14-1.24,3.34-1.94q4.2-2.45,4.83-2.29c.28.07.53.22.72.43.23.21,1.27,1.08,1.96,1.66.33.27.59.5.81.68.81-.49,1.12-.65,1.73-.5.04.01.08.02.12.04.51.08,2.31.22,3.65.32,2.03.16,3.25.25,4.01.36.58-.33,1.63-.95,2.46-1.44q3.12-1.83,3.76-1.66c.38.1.71.35.91.7q.26.44.12,3.46c.65-.38,1.37-.8,2.03-1.18,1.16-.68,2.34-1.36,3.22-1.88,1.63-.94,2.55-1.48,3.26-.68.46.24,1.53.76,2.35,1.16s1.41.69,1.84.9c.12-.07.25-.15.38-.23,1.47-.88,1.62-.97,2.25-.8.02,0,.03,0,.05.01.5.05,2.29.12,3.61.17,2.01.07,3.23.12,4,.2.24-.14.55-.33.87-.51,1.68-1,1.78-1.06,2.41-.9.15.04.29.1.42.18.33.16,1.59.68,2.53,1.06.86.35,1.47.6,1.91.79.16-.09.33-.2.5-.3,1.36-.82,1.57-.95,2.21-.78.34.09.64.3.85.59.13.17.71.89,1.32,1.64.49.6.83,1.03,1.08,1.33.82-.04,3.34-.33,5.41-.57,3.73-.43,5.69-.66,6.78-.67.08-.05.16-.1.24-.15,1-.61,1.35-.83,1.99-.67.65.02,3.06-.1,4.85-.19,2.41-.12,3.82-.19,4.67-.17.27-.16.67-.4,1.06-.63,1.64-.98,1.74-1.04,2.37-.87.39.1.72.36.92.7.03.05.58,1.08,1.12,2.11.12.23.24.45.35.67.13-.08.26-.15.37-.22,1.77-1.05,1.84-1.09,2.47-.93.04,0,.07.02.1.03.56.08,2.6.18,3.97.26,1.71.09,2.79.15,3.49.22.09-.05.18-.11.28-.17.9-.55,1.24-.76,1.87-.6.1.02.2.06.29.1.46.13,2.11.46,3.34.71,1.53.31,2.51.51,3.16.66.46-.28.86-.48,1.43-.34.4.1.74.35.94.7.42.72.17,1.63-.54,2.05-.06.03-.12.07-.18.09-.07.04-.15.1-.23.15-.5.31-.92.59-1.57.43-.1-.02-.2-.06-.29-.1-.46-.13-2.09-.46-3.31-.7-1.57-.31-2.56-.52-3.21-.68-.04.03-.08.05-.13.08-.96.59-1.29.79-1.93.63-.03,0-.05-.01-.08-.02-.49-.06-2.21-.15-3.49-.22-2.04-.11-3.27-.17-4.04-.26-.22.13-.52.31-.82.49q-2.24,1.33-2.88,1.16c-.39-.1-.72-.35-.92-.7-.03-.05-.56-1.06-1.11-2.08-.12-.23-.25-.47-.37-.69-1.74,1.04-1.87,1.1-2.45.95-.6-.01-2.85.1-4.52.19-2.64.13-4.14.21-5.04.18-.12.07-.26.16-.39.24-.81.5-1.16.71-1.77.57-.81.01-4.07.39-6.49.66-3,.35-4.69.54-5.68.57-.24.12-.57.21-.96.13-.39-.07-.73-.3-.96-.62-.15-.2-.87-1.09-1.56-1.93-.23-.28-.42-.52-.58-.72-1.45.87-1.65.98-2.28.82-.15-.04-.28-.1-.41-.18-.31-.14-1.47-.62-2.33-.97-.97-.4-1.64-.67-2.12-.88-.17.1-.37.22-.57.34-1.77,1.05-1.87,1.11-2.51.95-.03,0-.05-.01-.07-.02-.55-.06-2.57-.14-3.93-.19-1.8-.07-2.92-.11-3.64-.18-.18.11-.41.24-.63.38-1.48.88-1.64.98-2.27.81-.18-.05-.35-.12-.49-.23-.3-.17-1.45-.73-2.3-1.14-.94-.46-1.59-.78-2.06-1.01-.9.52-2.56,1.48-3.96,2.3q-4.87,2.84-5.5,2.67c-.39-.1-.71-.35-.91-.7q-.26-.44-.12-3.45c-.09.05-.18.11-.27.16q-3.49,2.05-4.13,1.88s-.09-.03-.13-.04c-.55-.09-2.59-.25-3.96-.35-1.81-.14-2.93-.23-3.65-.32-.07.05-.15.09-.23.14-.96.59-1.28.78-1.92.62-.27-.07-.51-.21-.7-.41-.18-.17-.81-.69-1.49-1.26-.58-.48-1.01-.84-1.33-1.12-.73.42-1.81,1.05-2.74,1.6q-4.4,2.57-5.04,2.4c-.06-.02-.12-.04-.18-.06-.45-.11-2.17-.42-3.44-.65-1.46-.27-2.42-.44-3.05-.58-.2.12-.44.26-.68.41-1.67,1-1.8,1.08-2.44.92-.08-.02-.17-.05-.24-.09-.4-.12-1.9-.47-3.01-.73-1.57-.37-2.57-.6-3.23-.78-.2.12-.44.26-.68.4-1.59.95-1.75,1.05-2.39.89-.02,0-.04,0-.05-.02-.64-.05-3-.01-4.6.01-2.01.03-3.23.05-4,0-.2.12-.46.28-.72.43-1.06.64-1.44.87-1.84.87ZM315.72,115.58c.07.11.14.21.22.29-.09-.09-.16-.19-.22-.29ZM190.6,115.85s0,0,0,0c0,0,0,0,0,0ZM190.6,115.84h0,0ZM190.59,115.84h0s0,0,0,0ZM190.59,115.83s0,0,0,0c0,0,0,0,0,0ZM287.82,115.39c.09.15.19.26.3.36-.12-.1-.22-.22-.3-.36ZM287.82,115.38s0,0,0,0c0,0,0,0,0,0ZM231.17,114.88s0,0,0,0c0,0,0,0,0,0ZM231.16,114.88s0,0,0,0c0,0,0,0,0,0ZM231.16,114.87s0,0,0,0c0,0,0,0,0,0ZM231.16,114.87s0,0,0,0c0,0,0,0,0,0ZM231.15,114.86s0,0,0,0c0,0,0,0,0,0ZM231.15,114.86s0,0,0,0c0,0,0,0,0,0ZM143.71,114.34c.12.2.26.35.4.45-.16-.12-.3-.27-.4-.45ZM93.14,114.21c.09.16.2.28.31.37-.12-.1-.23-.23-.31-.37ZM134.35,114.28c.07.11.14.21.23.29-.09-.09-.16-.18-.23-.29ZM174.07,114.57s0,0,0,0c0,0,0,0,0,0ZM174.07,114.56s0,0,0,0c0,0,0,0,0,0ZM174.07,114.56s0,0,0,0c0,0,0,0,0,0ZM103.49,114.05c.1.18.23.31.35.4-.14-.11-.26-.25-.35-.4ZM299.55,114.22c.03.05.06.1.1.15-.04-.05-.07-.1-.1-.15ZM143.71,114.34s0,0,0,0c0,0,0,0,0,0ZM83.79,113.91c.09.16.21.29.33.39-.13-.11-.24-.24-.33-.39ZM134.35,114.28h0s0,0,0,0ZM134.34,114.27h0s0,0,0,0ZM153.35,113.9c.11.1.21.22.29.36-.08-.15-.18-.27-.29-.36ZM183.84,114.24s0,0,0,0c0,0,0,0,0,0ZM183.46,113.81c.15.12.28.26.38.43-.11-.18-.24-.33-.38-.43ZM299.55,114.22s0,0,0,0c0,0,0,0,0,0ZM299.55,114.21s0,0,0,0c0,0,0,0,0,0ZM93.14,114.2s0,0,0,0c0,0,0,0,0,0ZM299.54,114.2s0,0,0,0c0,0,0,0,0,0ZM93.14,114.2s0,0,0,0c0,0,0,0,0,0ZM103.49,114.05s0,0,0,0c0,0,0,0,0,0ZM64.71,113.73c.07.11.14.21.22.29-.08-.09-.16-.18-.22-.29ZM83.79,113.91s0,0,0,0c0,0,0,0,0,0ZM261.45,113.58c.04.07.09.14.14.2-.05-.06-.1-.13-.14-.2ZM261.45,113.58s0,0,0,0c0,0,0,0,0,0ZM261.44,113.57s0,0,0,0c0,0,0,0,0,0ZM261.44,113.57s0,0,0,0c0,0,0,0,0,0ZM261.44,113.56s0,0,0,0c0,0,0,0,0,0ZM125.39,113.14c.13.11.24.24.32.39-.09-.16-.2-.29-.32-.39ZM74.46,113.51s0,0,0,0c0,0,0,0,0,0ZM74.12,113.11c.13.11.25.24.34.4-.1-.17-.21-.29-.34-.4ZM310.08,113.45s0,0,0,0c0,0,0,0,0,0ZM310.08,113.45s0,0,0,0c0,0,0,0,0,0ZM310,113.32s.06.08.08.12c-.03-.04-.05-.08-.08-.12ZM310,113.32s0,0,0,0c0,0,0,0,0,0ZM319.83,113.2s0,0,0,0c0,0,0,0,0,0ZM319.82,113.2s0,0,0,0c0,0,0,0,0,0ZM319.62,112.93c.08.08.14.17.2.27-.06-.1-.13-.19-.2-.27ZM195.71,112.86s0,0,0,0c0,0,0,0,0,0ZM195.71,112.86s0,0,0,0c0,0,0,0,0,0ZM195.7,112.84s0,0,0,0c0,0,0,0,0,0ZM195.7,112.84s0,0,0,0c0,0,0,0,0,0ZM195.62,112.73s.05.07.07.11c-.02-.04-.05-.07-.07-.11ZM195.62,112.73s0,0,0,0c0,0,0,0,0,0ZM195.62,112.73h0,0ZM225.35,112.51s0,0,0,0c0,0,0,0,0,0ZM225.35,112.5s0,0,0,0c0,0,0,0,0,0ZM225.35,112.5s0,0,0,0c0,0,0,0,0,0ZM225.34,112.49s0,0,0,0c0,0,0,0,0,0ZM225.34,112.49s0,0,0,0c0,0,0,0,0,0ZM225.34,112.48s0,0,0,0c0,0,0,0,0,0ZM225.34,112.48s0,0,0,0c0,0,0,0,0,0ZM225.33,112.47s0,0,0,0c0,0,0,0,0,0ZM225.33,112.47s0,0,0,0c0,0,0,0,0,0ZM225.33,112.46s0,0,0,0c0,0,0,0,0,0ZM117.41,112.08c.08.13.17.24.26.32-.1-.09-.19-.2-.26-.32ZM168.32,112.09s0,0,0,0c0,0,0,0,0,0ZM168.32,112.09s0,0,0,0c0,0,0,0,0,0ZM168.32,112.08s0,0,0,0c0,0,0,0,0,0ZM117.4,112.07s0,0,0,0c0,0,0,0,0,0ZM117.4,112.07s0,0,0,0c0,0,0,0,0,0ZM138.47,111.88s0,0,0,0c0,0,0,0,0,0ZM138.47,111.87s0,0,0,0c0,0,0,0,0,0ZM138.47,111.87s0,0,0,0c0,0,0,0,0,0ZM107.62,111.64s0,0,0,0c0,0,0,0,0,0ZM107.29,111.25c.13.11.24.24.33.39-.1-.16-.21-.29-.33-.39ZM255.72,111.57s0,0,0,0c0,0,0,0,0,0ZM255.72,111.56s0,0,0,0c0,0,0,0,0,0ZM255.71,111.56s0,0,0,0c0,0,0,0,0,0ZM255.71,111.55s0,0,0,0c0,0,0,0,0,0ZM255.58,111.36c.05.06.09.12.13.18-.04-.07-.08-.13-.13-.18ZM255.58,111.36h0ZM98.03,111.35s0,0,0,0c0,0,0,0,0,0ZM97.69,110.95c.13.11.25.24.34.4-.1-.17-.22-.3-.34-.4ZM60.58,109.89h0s0,0,0,0ZM60.58,109.88h0s0,0,0,0Z"/>
    <path class="cls-1" d="M329.37,113.58c-.12,0-.23-.03-.38-.07-.39-.1-.72-.35-.92-.7q-.34-.59.62-4.4c.12-.5.27-1.07.4-1.59-.08-.08-.14-.17-.2-.27q-.11-.2-1.01-3.02c-.09-.3-.19-.59-.27-.86-.06,0-.11-.02-.17-.03-.4-.1-.74-.35-.95-.71q-.31-.54.33-3.73c.01-.05.02-.1.03-.16-.25.14-.49.29-.73.42q-4.4,2.56-5.02,2.39c-.38-.1-.71-.36-.91-.7q-.38-.65,1.04-5c.21-.66.46-1.43.68-2.09-.04-.05-.08-.11-.11-.17-.11-.19-.12-.21-1.03-3.04-.1-.32-.2-.63-.29-.92-.06,0-.13-.02-.2-.04-.39-.1-.72-.35-.92-.7q-.12-.21-.83-2.59c-.09-.3-.18-.6-.26-.88-.06,0-.11-.02-.17-.04-.39-.1-.72-.35-.92-.7q-.12-.2-.89-2.73c-.09-.29-.18-.58-.26-.85-.06,0-.11-.02-.17-.03-.39-.1-.72-.35-.92-.7q-.12-.21-.87-2.74c-.07-.23-.13-.45-.2-.66-.05,0-.1-.02-.16-.03-.39-.1-.72-.35-.92-.7q-.39-.68,1.09-4.72c-.18.1-.35.21-.53.31l-2.68,1.55c-1.45.84-2.5,1.45-3.26.15q-.33-.56.48-4.63c.1-.51.22-1.09.32-1.63-.11-.1-.2-.21-.27-.34q-.11-.19-.79-2.46c-.1-.35-.21-.7-.31-1.03-.05,0-.11-.02-.16-.03-.39-.1-.73-.35-.93-.71q-.29-.51.12-4.31s0-.08.01-.13c-.21.12-.43.25-.65.38l-2.28,1.32c-1.26.73-2.34,1.35-3.1.06q-.36-.62.73-4.32c.17-.58.38-1.29.56-1.92-.06-.07-.11-.14-.16-.22-.11-.2-.12-.2-1.01-2.98-.11-.33-.21-.66-.31-.96-.07,0-.13-.02-.2-.04-.39-.1-.72-.35-.92-.7q-.11-.19-.83-2.5c-.13-.4-.27-.87-.41-1.29-.06,0-.12-.02-.18-.04-.39-.1-.73-.35-.93-.71q-.39-.68,1.12-5.05c.17-.5.37-1.08.56-1.62-.78-.03-1.83-.05-2.68-.06-2.32-.05-3.68-.08-4.51-.15-.09.05-.18.11-.27.16-.99.59-1.26.75-1.88.58-.39-.1-.72-.35-.92-.7q-.45-.77,1.71-5.35c.15-.31.31-.65.47-1-.31-.07-.59-.29-.84-.71q-.24-.41-.38-3.87c0-.07,0-.15,0-.23-1.12.64-1.2.62-1.72.48-.38-.1-.71-.35-.91-.7-.08-.14-.09-.16-1.2-2.87-.31-.77-.62-1.52-.8-1.96-.06-.07-.11-.14-.15-.21-.17-.3-.17-.3-.74-3.23-.04-.2-.08-.41-.12-.62-.68.38-.88.4-1.35.27-.39-.1-.72-.35-.92-.7-.34-.6-.36-.63.58-3.82l-2.26,1.31c-1.25.72-2.33,1.35-3.09.06q-.53-.92,2.54-5.53s.04-.06.06-.1c-.35-.11-.65-.35-.84-.68-.1-.17-.11-.18-1.15-3.05-.07-.19-.14-.39-.21-.57-.17.1-.34.2-.51.3q-2.44,1.42-3.05,1.25l.39-1.45,1.31-.74-1.31.74-.69-1.33c.14-.08.99-.57,1.85-1.07,2.69-1.56,3.33-1.94,4.09-.66q.11.18.95,2.51c.14.38.28.77.41,1.14l.18-.11c2.2-1.29,3.03-1.78,3.79-.47.49.85.53.92-1.94,4.67,1.7-.96,1.81-.93,2.28-.81.38.1.71.35.91.69q.36.62-.7,4.22s-.02.06-.03.09c.04,0,.08.02.12.03.39.1.71.35.91.7q.17.29.71,3.15c.14.75.33,1.71.44,2.24,0,.01.01.02.02.03.07.11.07.13,1.07,2.57.15.37.3.75.44,1.09,1.7-1,1.74-1.02,2.35-.86.39.1.72.36.92.71q.21.37.34,3.38c0,.22.02.46.03.71.87-.49.99-.47,1.47-.34.39.1.71.35.91.7q.46.8-1.96,5.93c-.16.34-.33.71-.51,1.08.96.04,2.56.08,3.73.1,1.83.04,2.97.06,3.71.12.44-.27.84-.48,1.43-.32.39.1.72.35.92.7q.39.68-1.16,5.16c-.22.62-.47,1.35-.69,1.99.03.04.06.09.09.13.12.2.12.21,1.02,3.07.08.25.15.49.23.72.06,0,.11.02.17.03.39.1.73.35.94.71q.11.19.92,2.73c.12.38.26.81.39,1.22.06,0,.13.02.19.04.39.1.73.35.93.7.36.62.37.64-.77,4.52l.15-.09q3.7-2.15,4.31-1.98c.38.1.7.35.9.69q.29.49-.09,3.96c-.05.47-.11,1.04-.17,1.57.17.12.32.28.42.47q.12.21.91,2.84c.07.22.13.43.19.64.05,0,.11.02.17.04.39.1.72.35.92.7q.32.55-.46,4.5c-.02.12-.05.25-.07.38.36-.21.73-.42,1.08-.63l2.76-1.6c1.54-.89,2.56-1.48,3.31-.18q.4.7-1.19,5c-.2.55-.44,1.18-.64,1.75.02.03.04.06.06.09q.11.2.8,2.49c.09.31.19.62.27.92.05,0,.1.02.15.03.39.1.73.35.93.7q.11.2.86,2.65c.1.32.19.64.29.93.06,0,.11.02.17.04.39.1.72.35.92.7.12.21.12.22.87,2.7.08.26.16.52.23.77.05,0,.1.02.16.03.39.1.73.35.93.71q.11.19.91,2.68c.13.4.27.86.41,1.28.06,0,.13.02.2.04.39.1.72.35.93.7q.38.66-1.07,5.13s-.03.08-.04.12c.19-.11.39-.22.57-.33q4.07-2.36,4.68-2.19c.38.1.71.35.91.7q.33.57-.44,4.42c-.05.27-.11.57-.17.86.1.1.19.21.27.34q.1.18.88,2.63c.14.43.27.86.4,1.25.06,0,.12.02.19.04.39.1.73.35.93.7q.34.59-.62,4.42l.83-.48c.67-.39,1.92-1.11,2.67.18.42.71.18,1.63-.53,2.05-.03.02-.07.04-.1.06-.21.12-1.06.61-1.94,1.13-2.25,1.31-2.78,1.62-3.18,1.62ZM297.97,36.32s.04.07.07.1h0s-.05-.07-.07-.1ZM297.97,36.32s0,0,0,0c0,0,0,0,0,0ZM291.68,34.43s0,0,0,0c0,0,0,0,0,0ZM291.67,34.42h0s0,0,0,0ZM291.47,34.16c.08.08.14.17.2.27-.06-.1-.13-.19-.2-.27Z"/>
    <path class="cls-1" d="M442.26,307.88c-.14,0-.27-.02-.38-.05-.39-.1-.8-.4-1-.75-.24-.41-.29-.9-.17-1.37,1.02-3.79,29.23-20.27,93.35-56.98,36.06-20.64,80.03-45.82,90.41-53.69-.12-.29-.37-.92-.99-2.49-.08-.21-.17-.42-.25-.63-.09.05-.18.1-.27.16-2.71,1.58-3.35,1.96-4.12.68-.06-.1-.63-.94-1.23-1.83-.3-.44-.54-.79-.73-1.08-1.07.63-1.29.74-1.88.58-.39-.1-.71-.35-.91-.7-.04-.06-.64-1.21-1.25-2.35-.16-.3-.31-.59-.46-.87-.5.29-1.06.62-1.55.9l-1.82,1.06c-.93.54-2.1,1.21-2.86-.06q-.32-.55.3-4.06c.03-.15.05-.31.08-.47-.13.08-.26.15-.4.23l-2.4,1.39c-1.33.77-2.39,1.38-3.15.1-.36-.63-.38-.65.72-4.44-1.84,1.07-1.91,1.05-2.45.9-.38-.1-.71-.35-.9-.7-.08-.14-.08-.14-1.03-2.53-.14-.36-.29-.72-.42-1.05-.87.51-1.1.57-1.64.43-.29-.08-.55-.24-.74-.46-.23-.22-1.29-1.17-2.07-1.87-.45-.4-.8-.72-1.08-.96-.24.14-.5.29-.76.44-2.3,1.34-3.07,1.79-3.83.49-.32-.56-.32-.56.35-4.16-.4.23-.81.47-1.18.69l-2.27,1.32c-1.17.68-2.28,1.32-3.04.05-.07-.11-.08-.14-1.19-2.47-.14-.3-.29-.61-.42-.89-.25.08-.49.09-.79,0-.32-.08-.6-.27-.81-.53-.18-.21-1.1-1.16-1.77-1.86-.47-.49-.83-.86-1.11-1.15-.31.13-.6.18-.99.08-.38-.1-.71-.35-.91-.7q-.19-.33-.49-3.27c-.03-.3-.07-.64-.1-.99-.61.33-.82.35-1.27.24-.22-.06-.42-.16-.59-.31-.27-.19-1.33-.82-2.11-1.28-.69-.42-1.2-.72-1.58-.95-.65.39-.98.54-1.54.39-.13-.03-.25-.08-.36-.15-.35-.14-1.66-.59-2.63-.92-1.23-.42-2.05-.7-2.61-.91-.48.28-.85.44-1.39.3-.26-.07-.5-.21-.69-.4-.21-.19-1.11-.9-1.77-1.42-.48-.38-.85-.67-1.13-.9-.35.18-.67.26-1.12.14-.39-.1-.72-.35-.92-.7q-.12-.2-1.01-3.06c-.07-.22-.13-.44-.2-.64-.45.26-.93.54-1.38.8q-3.37,1.96-3.99,1.79c-.38-.1-.71-.35-.91-.7q-.21-.36-.35-3.16c0-.06,0-.13-.01-.2-1.35.77-2.16,1.05-2.84-.06q-.24-.42-.36-3.72c0-.15-.01-.31-.02-.48-.49.25-.7.25-1.1.14-.09-.02-.18-.06-.26-.1-.38-.12-1.8-.49-2.85-.76-1.46-.38-2.4-.62-3.03-.8-.48.29-.86.48-1.43.33-.39-.1-.73-.35-.93-.71q-.17-.3-.72-3.47c-.03-.18-.06-.37-.1-.56-.09.05-.19.11-.28.17-2.58,1.51-3.27,1.91-4.04.62-.08-.14-.08-.14-1-2.35-.07-.17-.14-.34-.21-.5-.61.35-.86.4-1.35.27-.15-.04-.29-.1-.41-.18-.34-.16-1.59-.64-2.51-.99-1.03-.4-1.74-.67-2.24-.87-.45.27-.81.41-1.34.28-.4-.1-.74-.36-.94-.71q-.15-.26-.71-3c-.02-.07-.03-.15-.05-.22-.2.12-.42.24-.63.36q-2.91,1.7-3.52,1.53c-.3-.08-.56-.25-.76-.48-.19-.2-.94-.92-1.68-1.63-.39-.38-.71-.68-.95-.92-.26.15-.55.32-.84.49q-2.12,1.24-2.74,1.07c-.25-.07-.48-.2-.66-.38-.23-.19-1.21-.94-1.94-1.5-.57-.43-.99-.76-1.32-1.01-.38.21-.72.31-1.18.19-.39-.1-.73-.36-.93-.71q-.16-.28-.69-3.07c-.05-.27-.11-.57-.16-.86-.05,0-.1-.02-.15-.03-.27-.07-.51-.21-.7-.41-.22-.19-1.15-.93-1.83-1.47-.45-.36-.8-.64-1.08-.86-.35.18-.67.26-1.12.15-.39-.1-.72-.36-.92-.7q-.17-.29-.66-3.17c-.04-.21-.08-.44-.11-.67-.21.12-.43.25-.65.38q-3.08,1.8-3.71,1.63c-.38-.1-.71-.35-.91-.7q-.14-.24-.8-2.79c-.03-.12-.06-.24-.09-.36-1.37.81-1.46.81-2.02.66-.38-.1-.71-.35-.91-.69q-.11-.19-.98-2.82c-.07-.2-.13-.41-.2-.6-.78.45-1.02.52-1.54.38-.13-.04-.26-.09-.38-.16-.35-.15-1.71-.65-2.71-1.02-1.39-.51-2.29-.84-2.89-1.08-.31.18-.7.41-1.1.64q-2.38,1.39-3,1.22c-.38-.1-.7-.35-.9-.69-.37-.64-.38-.65.85-4.54-.16.09-.32.19-.48.28q-4.97,2.88-5.59,2.72c-.38-.1-.71-.36-.91-.7q-.39-.67.94-4.34c.05-.15.11-.31.17-.47-.33-.12-.62-.35-.79-.66-.05-.09-.07-.11-1.09-2.29-.12-.26-.25-.53-.37-.78-.54.31-1.19.69-1.86,1.08q-4.7,2.73-5.33,2.56c-.38-.1-.71-.35-.91-.7q-.17-.3-.63-3.17c-.04-.23-.08-.47-.11-.72-.03,0-.05-.01-.08-.02-.26-.07-.5-.21-.69-.4-.27-.23-1.5-1.14-2.32-1.76-.59-.44-1.03-.77-1.37-1.03-.36.19-.69.27-1.13.16-.27-.07-.51-.2-.7-.4-.24-.2-1.28-1-2.05-1.59-.55-.42-.96-.74-1.28-.99-.35.18-.67.26-1.11.16-.17-.04-.32-.11-.46-.2-.34-.16-1.63-.71-2.59-1.11-.96-.4-1.63-.68-2.1-.9-.26.15-.57.33-.88.52q-2.25,1.32-2.88,1.15c-.38-.1-.7-.35-.9-.69-.17-.29-.17-.3-.76-3.38-.03-.16-.06-.34-.1-.51-.96.55-1.11.57-1.63.43-.39-.1-.72-.35-.92-.7-.03-.04-.54-1.04-1.07-2.07-.16-.32-.33-.64-.48-.93-.19.03-.38.03-.61-.03-.39-.1-.72-.35-.92-.7q-.2-.34-.51-3.42c-.01-.12-.02-.24-.04-.36-.18.11-.37.21-.55.32q-2.82,1.65-3.44,1.48c-.27-.07-.52-.22-.7-.43-.22-.2-1.22-1.04-1.96-1.65-.64-.53-1.11-.92-1.45-1.22-.35.17-.66.24-1.08.13-.39-.1-.72-.35-.93-.7q-.15-.26-.78-3.12c-.03-.13-.06-.25-.08-.37-.18.03-.36.01-.58-.04-.1-.03-.19-.06-.28-.1-.45-.13-2.05-.48-3.24-.73-1.51-.32-2.48-.53-3.12-.7-.18.11-.4.23-.61.36-1.59.94-1.69,1-2.31.83-.16-.04-.31-.11-.45-.2-.31-.15-1.42-.63-2.24-.99-.87-.38-1.48-.64-1.93-.84-.34.19-.7.31-1.17.19-.39-.1-.73-.35-.93-.71q-.21-.36-.38-3.09s0-.1,0-.14c-.73.41-.91.42-1.38.29-.33-.09-.62-.28-.82-.55-.18-.22-1.18-1.31-1.91-2.12-.4-.44-.71-.79-.96-1.06-.29.12-.58.16-.94.07-.26-.07-.49-.2-.68-.38-.21-.18-.94-.75-1.7-1.35-.61-.48-1.06-.83-1.4-1.1-.35.18-.68.26-1.11.15-.26-.06-.49-.2-.67-.38-.22-.18-1.19-.93-1.91-1.48-.67-.51-1.16-.89-1.52-1.17-.36.19-.68.27-1.12.16-.39-.1-.72-.35-.93-.7-.05-.07-.66-.93-1.26-1.79-.2-.28-.36-.51-.51-.72-.52.3-1.13.66-1.65.96l-1.79,1.04c-.88.51-2.08,1.21-2.85-.07q-.17-.3-.66-2.99c-.03-.14-.05-.29-.08-.45-.19.03-.37.02-.6-.04-.32-.08-.61-.27-.81-.53-.17-.2-.89-.96-1.62-1.75-.44-.48-.79-.84-1.05-1.13-.29.12-.58.17-.95.08-.39-.1-.73-.35-.93-.7-.03-.05-.66-1.2-1.29-2.35-.19-.34-.37-.68-.55-1-.71.41-.97.48-1.48.35-.39-.1-.72-.35-.93-.7-.09-.16-.1-.17-.93-2.43-.06-.17-.13-.35-.19-.52-.79.46-1.77,1.03-2.64,1.53q-4.39,2.55-5.01,2.38c-.38-.1-.7-.35-.9-.69q-.42-.72,1.23-4.69c.24-.58.53-1.29.8-1.93-.62-.07-1.37-.15-1.99-.22-1.94-.21-3.12-.34-3.87-.47-.54.33-.92.53-1.52.38-.27-.07-.52-.21-.71-.41-.23-.2-1.25-1.02-1.94-1.56-.39-.31-.7-.56-.95-.76-.35.18-.67.26-1.11.15-.26-.07-.5-.2-.69-.39-.22-.19-1.18-.95-1.89-1.51-.44-.35-.79-.63-1.06-.85-.36.19-.68.26-1.11.15-.13-.03-.25-.08-.36-.14-.39-.15-1.88-.62-2.98-.97-1.41-.44-2.33-.73-2.93-.94-.24.09-.53.14-.88.06-.4-.09-.75-.35-.95-.71q-.3-.52.17-4.28s0-.02,0-.03c-1.24.72-1.33.69-1.85.55-.13-.04-.25-.09-.37-.15-.38-.15-1.77-.62-2.8-.97-1.15-.39-1.93-.65-2.46-.84-.33.19-.76.44-1.19.7-2.36,1.38-3.15,1.85-3.92.54q-.24-.42-.21-3.28c0-.26,0-.55,0-.85-.29-.13-.54-.35-.7-.63q-.23-.4-.36-3.98s0-.09,0-.13c-.11.07-.23.13-.34.2q-3.21,1.87-3.83,1.7c-.28-.08-.54-.23-.73-.45-.22-.21-1.23-1.09-1.97-1.74-.46-.4-.82-.72-1.1-.96-1.37.81-1.53.9-2.14.74-.33-.09-.62-.28-.83-.55-.17-.2-1.05-1.18-1.7-1.91-.31-.35-.57-.63-.77-.86-.28.12-.56.16-.92.07-.24-.06-.45-.17-.63-.33-.22-.17-.94-.65-1.69-1.16-.69-.47-1.2-.81-1.57-1.07-.25.09-.53.13-.87.04-.27-.07-.52-.21-.71-.41-.27-.23-1.51-1.2-2.35-1.84-.51-.4-.9-.7-1.21-.94-.37.19-.69.27-1.13.15-.39-.1-.72-.35-.92-.7q-.2-.34-.54-3.57c-.03-.25-.06-.53-.08-.81-.18.03-.35.01-.57-.04-.08-.02-.15-.04-.22-.08-.52-.12-2.48-.41-3.79-.61-1.56-.23-2.56-.38-3.23-.51-.55.33-.92.52-1.51.37l.22-.85c-.1-.1-.17-.22-.25-.37l.41-.23-.65-1.35c.08-.04.23-.13.37-.22.53-.32.92-.56,1.54-.4.07.02.14.04.2.06.46.1,2.12.35,3.35.54,1.86.28,3,.45,3.73.6.04-.03.09-.05.14-.08.97-.58,1.26-.75,1.89-.59.39.1.72.35.92.7q.2.34.53,3.56c.04.36.08.77.12,1.16.26.07.49.2.67.38.21.18,1.12.88,1.85,1.45.81.62,1.37,1.06,1.77,1.38.23-.07.49-.1.8-.02.24.06.47.18.65.35.26.2,1.38.96,2.12,1.47.44.3.8.54,1.07.73.38-.21.71-.31,1.18-.19.33.08.62.28.82.55.16.19.81.91,1.48,1.66.42.46.74.82.99,1.1,1.21-.72,1.41-.83,2.02-.67.29.07.54.23.74.44.2.19,1.1.98,1.77,1.56.57.5,1,.87,1.32,1.16.52-.3,1.18-.68,1.72-1q3.01-1.76,3.63-1.59c.38.1.71.35.91.7q.22.37.32,3.31c.01.42.03.92.05,1.4.33.12.62.35.8.66.24.41.24.42.21,3.42,1.72-1,2.51-1.4,3.15-.77.53.2,1.69.58,2.58.88,1.17.39,1.96.66,2.5.85.3-.17.67-.4,1.05-.61q2.1-1.23,2.72-1.06c.38.1.71.35.91.7q.29.5-.14,3.94c-.07.53-.15,1.18-.22,1.76.67.23,1.83.59,2.74.88,1.26.4,2.1.66,2.67.86.46-.28.83-.45,1.4-.31.26.07.5.2.68.39.21.18.96.77,1.73,1.39.52.42.93.74,1.23.98.35-.18.67-.26,1.1-.15.27.07.5.2.7.39.2.17.89.72,1.61,1.29.56.45.99.78,1.31,1.04.35-.18.67-.26,1.1-.15.06.02.12.03.17.06.54.1,2.55.32,3.91.47,1.45.16,2.4.26,3.04.36.31-.17.68-.31,1.17-.18.39.1.73.35.93.71.41.71.43.75-1.22,4.73.04-.02.08-.05.12-.07q4.71-2.73,5.33-2.57c.38.1.71.35.91.7.09.16.1.17.92,2.41.06.18.13.35.19.53.54-.29.81-.35,1.27-.23.39.1.72.35.92.7.03.06.67,1.22,1.31,2.38.2.36.4.72.58,1.05.2-.04.4-.04.65.02.33.08.61.27.82.54.18.2,1.08,1.17,1.75,1.89.37.4.67.72.9.97.58-.34.89-.45,1.42-.31.39.1.71.35.91.7q.16.28.64,2.92c.02.13.05.27.07.41.24-.14.5-.29.75-.44l1.95-1.13c1.03-.59,2.19-1.27,2.95.03.05.07.63.89,1.22,1.72.23.32.42.59.58.81.25-.08.5-.09.8-.02.26.07.49.2.68.39.24.21,1.34,1.04,2.15,1.66.54.41.95.73,1.26.97.35-.18.68-.27,1.13-.16.27.07.51.21.7.4.24.21,1.31,1.05,2.03,1.61.44.34.78.61,1.05.83.35-.18.68-.27,1.12-.15.33.08.62.28.82.54.17.2.91,1.01,1.67,1.84.52.57.91,1,1.2,1.32,1.67-.98,1.77-1.04,2.39-.88.39.1.72.35.92.7q.21.37.39,3.21c.01.23.03.48.05.73.08.04.15.08.22.12.32.16,1.48.66,2.34,1.03.81.35,1.4.6,1.82.8.14-.08.3-.18.46-.27,1.63-.96,1.72-1.02,2.35-.85.1.03.19.06.28.1.45.13,2.06.48,3.26.73,1.5.32,2.46.53,3.1.69.02-.01.04-.03.07-.04.78-.47,1.1-.66,1.72-.5.39.1.72.36.93.71q.14.24.68,2.68c.07.31.15.67.22,1.01.06,0,.12.02.19.04.28.07.54.23.73.44.24.22,1.3,1.11,2.09,1.76.57.48,1,.83,1.32,1.1.39-.23.87-.51,1.35-.79q3.06-1.79,3.69-1.61c.38.1.7.35.9.7q.19.33.49,3.24c.03.31.07.67.1,1.01.38.1.71.35.91.7.03.05.62,1.2,1.2,2.31.11.21.21.42.32.61,1.35-.8,1.49-.86,2.09-.7.38.1.71.35.91.7q.16.28.69,3.05c.05.27.1.55.16.84,1.65-.97,2.53-1.47,3.23-.75.47.21,1.54.66,2.35,1,.99.42,1.68.71,2.17.92.44-.26.82-.41,1.35-.27.25.07.49.2.67.38.22.19,1.2.94,1.92,1.49.62.48,1.08.83,1.42,1.1.36-.19.69-.27,1.14-.15.25.07.48.2.66.37.23.19,1.25.95,1.99,1.51.77.58,1.32.99,1.72,1.29.36-.19.69-.27,1.13-.16.39.1.73.36.93.71q.16.29.59,2.98c.03.17.06.35.08.53.74-.43,1.58-.92,2.31-1.34q3.79-2.2,4.41-2.04c.39.1.71.35.91.7.05.09.07.12,1.12,2.36.11.24.22.47.33.7l.17-.1c1.42-.83,2.11-.14,2.39.34.38.66.41.7-.8,4.06.33-.19.66-.38.97-.57q4.27-2.48,4.89-2.31c.38.1.71.36.91.7q.37.64-.86,4.55c1.03-.54,1.61-.65,2.1-.12.59.24,2.03.77,3.02,1.13,1.08.4,1.83.67,2.35.87.07-.04.14-.08.22-.13,1.48-.88,1.63-.96,2.26-.8.39.1.71.36.91.7q.1.18.91,2.63c.09.27.18.54.26.79,1.45-.85,1.54-.88,2.13-.72.39.1.71.35.92.7q.13.23.76,2.64c.04.16.09.34.13.52.28-.16.57-.33.87-.5q3.03-1.77,3.66-1.59c.38.1.7.35.89.69q.17.29.68,3.27c.05.29.11.62.16.93.04,0,.08.02.12.03.26.07.5.21.69.4.21.18,1.08.87,1.72,1.38.51.4.9.71,1.2.95.34-.17.66-.26,1.1-.15.39.1.73.35.93.7q.17.28.69,3.05c.05.26.1.55.16.84.06,0,.13.02.2.04.26.07.5.2.68.39.23.19,1.22.95,1.95,1.5.57.43,1,.76,1.32,1.01.21-.12.45-.26.69-.4q2.36-1.38,2.98-1.22c.3.08.56.25.76.48.19.19.92.89,1.65,1.6.41.39.73.7.99.95.4-.23.89-.52,1.38-.81q2.95-1.72,3.57-1.55c.38.1.71.35.9.69q.15.25.65,2.7c.05.27.12.56.18.86.05,0,.11.02.17.03.16.04.3.1.43.19.35.16,1.64.66,2.59,1.02.99.38,1.67.64,2.16.84.05-.03.1-.06.15-.09,1.14-.68,1.38-.82,2.01-.65.38.1.7.35.9.69q.07.12.96,2.25c.08.2.17.4.25.59.17-.1.34-.2.51-.3q2.65-1.55,3.27-1.39c.38.1.71.35.91.7q.17.29.66,3.17c.07.39.14.82.21,1.24.04,0,.08.02.12.03.1.03.2.06.29.11.44.15,2.13.58,3.27.88,1.2.31,2.02.52,2.58.68.15-.09.32-.19.49-.29l.7-.41c1.45-.84,2.13-.03,2.36.36q.23.41.35,3.66c0,.17.01.34.02.52,1.3-.75,1.38-.74,1.92-.59.38.1.7.35.9.69q.21.37.37,3.3s0,.05,0,.07c.24-.14.49-.29.74-.43q3.52-2.05,4.14-1.89c.39.1.72.36.92.71q.11.19.9,2.72c.12.37.25.79.37,1.18.11,0,.23.02.35.06.26.07.5.21.69.4.21.19,1.11.9,1.77,1.42.47.38.84.67,1.13.9.35-.18.67-.26,1.11-.15.14.03.26.09.38.16.39.16,1.92.68,2.95,1.03,1.04.36,1.76.6,2.27.79.78-.47,1.11-.66,1.73-.49.21.06.41.16.58.3.27.18,1.33.82,2.11,1.28.7.42,1.21.72,1.58.96.05-.03.09-.06.14-.08,1.56-.92,1.69-1,2.32-.83.38.1.71.35.91.7q.21.36.57,3.87c.03.28.06.57.09.86.31.09.59.27.79.52.18.21,1.11,1.17,1.79,1.88.45.47.8.83,1.07,1.12.4-.22.72-.3,1.18-.18.39.1.72.35.92.7.05.09.06.11,1.16,2.42.14.3.28.6.42.88.54-.31,1.19-.69,1.86-1.08q4.47-2.6,5.09-2.43c.38.1.71.35.91.7q.31.54-.34,4.06s-.01.06-.02.08c1.29-.74,1.38-.72,1.9-.57.28.08.53.23.72.44.19.19,1.05.96,1.75,1.58.62.56,1.08.97,1.42,1.27.01,0,.03-.02.04-.02,1.29-.77,1.49-.88,2.12-.72.38.1.71.35.91.69.08.14.09.16,1.17,2.86.1.25.2.5.29.73.23-.13.47-.28.72-.42l1.55-.9c.74-.43,1.98-1.15,2.74.12q.37.64-.7,4.34s-.02.08-.04.13c.12-.07.25-.14.37-.21l2.15-1.25c1.1-.64,2.24-1.3,3-.02q.33.57-.36,4.52c3.33-1.94,3.34-1.94,3.95-1.77.38.1.71.36.91.7.03.06.62,1.17,1.21,2.29.17.31.33.63.49.92,1-.58,1.21-.65,1.76-.5.38.1.71.35.9.7.07.1.78,1.15,1.45,2.15.19.29.36.53.5.74.27-.16.56-.33.85-.5,2.28-1.34,3.05-1.78,3.82-.51.1.17.1.18,1,2.47.13.32.26.65.38.95,1.03-.6,1.21-.66,1.76-.51.39.1.72.35.92.7.24.41.29.9.17,1.38-1.03,3.83-29.42,20.42-93.95,57.36-15.03,8.61-30.78,17.62-44.92,25.84.34.13.67.39.85.7.41.72.17,1.63-.55,2.05-.27.16-.57.22-.87.2-2.19.79-13.31,7.65-22.29,13.21-20.13,12.43-23.95,14.56-25.51,14.56ZM488.89,279.38h0s0,0,0,0ZM488.89,279.37s0,0,0,0c0,0,0,0,0,0ZM534.78,141.76s0,0,0,0c0,0,0,0,0,0ZM534.78,141.75s0,0,0,0c0,0,0,0,0,0ZM534.77,141.75s0,0,0,0c0,0,0,0,0,0ZM534.77,141.74s0,0,0,0c0,0,0,0,0,0ZM534.77,141.74s0,0,0,0c0,0,0,0,0,0ZM534.76,141.73s0,0,0,0c0,0,0,0,0,0ZM534.76,141.73s0,0,0,0c0,0,0,0,0,0ZM534.76,141.72s0,0,0,0c0,0,0,0,0,0ZM534.75,141.72s0,0,0,0c0,0,0,0,0,0ZM534.75,141.71s0,0,0,0c0,0,0,0,0,0ZM534.75,141.71s0,0,0,0c0,0,0,0,0,0ZM534.75,141.7s0,0,0,0c0,0,0,0,0,0ZM534.74,141.7h0s0,0,0,0ZM534.74,141.7h0s0,0,0,0ZM474.21,108.54s.02.03.02.04c0-.01-.01-.03-.02-.04ZM411.85,75.4c.05.08.1.15.15.22-.06-.07-.11-.14-.15-.22ZM411.84,75.4s0,0,0,0c0,0,0,0,0,0ZM411.84,75.39s0,0,0,0c0,0,0,0,0,0ZM407.24,72.17s0,0,0,0c0,0,0,0,0,0ZM407.23,72.16s0,0,0,0c0,0,0,0,0,0ZM407.08,71.95c.05.06.1.13.15.21-.05-.08-.1-.15-.15-.21ZM347.57,39.18s0,0,0,0c0,0,0,0,0,0ZM347.56,39.17s0,0,0,0c0,0,0,0,0,0ZM347.56,39.17h0s0,0,0,0ZM330.34,32.07c.05.06.09.12.12.18-.04-.07-.08-.13-.12-.18h0ZM286.23,5.54s0,0,0,0t0,0ZM286.23,5.54s0,0,0,0t0,0ZM279.67,3.44h0s.41-.23.41-.23l-.41.23ZM280.96,2.68s0,0,0,0c0,0,0,0,0,0ZM280.67,2.32c.12.1.21.22.29.36-.09-.15-.19-.27-.29-.36Z"/>
    <path class="cls-1" d="M262.17,413.34c-.13,0-.24-.03-.39-.07-.38-.1-.71-.35-.91-.7q-.5-.86,2.42-5.76c.45-.75,1.01-1.69,1.49-2.52-.02-.03-.04-.07-.06-.1q-.49-.85,2.28-5.42c.37-.61.79-1.31,1.18-1.95-.01-.02-.02-.04-.03-.05q-.54-.93,3.06-6.11c.55-.79,1.19-1.71,1.74-2.52-.45-.79-.44-.81,2.08-5.85.24-.48.51-1.02.77-1.53-.06-.07-.11-.14-.15-.22-.53-.92-.56-.97,3.1-5.97-2.05,1.17-2.15,1.15-2.64,1.01-.38-.1-.71-.35-.91-.7q-.64-1.1,5.02-7.59c.81-.93,1.78-2.04,2.57-2.96-.32-.75.17-1.41,4.03-6.05-1.42.79-1.56.76-1.98.64-.39-.1-.72-.35-.92-.7q-.57-1,3.7-6.5c.89-1.15,2.04-2.62,2.93-3.8-.36-.66-.23-.98,1.87-4.61-.63.32-.78.28-1.15.18-.38-.1-.71-.35-.91-.7q-.54-.94,3.07-6.28c.38-.56.8-1.19,1.21-1.79-.05-.06-.1-.13-.14-.2q-.62-1.07,4.65-7.65c.79-.99,1.74-2.18,2.51-3.15-.33-.68-.05-1.15,2.73-5.81.36-.61.78-1.3,1.16-1.95-.01-.02-.02-.04-.04-.06q-.61-1.06,4.63-7.21c-.19.03-.32,0-.5-.05-.39-.1-.72-.35-.92-.7q-.54-.93,3.23-6.8c.42-.66.89-1.38,1.3-2.03-.41-.71-.4-.73,1.36-4.92.23-.55.5-1.18.74-1.76-.06-.07-.11-.14-.15-.22q-.47-.81,1.83-5.1c.27-.51.6-1.13.91-1.71-.03-.04-.05-.07-.07-.11q-.28-.49.06-3.88c0-.07.01-.14.02-.22-.46.23-.68.23-1.06.14-.7-.03-3.43.16-5.27.28-2.4.16-3.8.26-4.67.24-.09.06-.19.12-.3.18-.98.6-1.31.8-1.96.65-.05-.01-.1-.03-.14-.04-.57-.09-2.7-.25-4.27-.36-2.16-.16-3.45-.25-4.24-.36-.09.05-.19.11-.28.17-.9.55-1.24.76-1.87.6-.31-.08-.58-.25-.78-.49-.19-.2-.92-.9-1.64-1.58-.36-.35-.65-.63-.89-.85-.88.51-2.23,1.3-3.4,1.98q-4.71,2.74-5.33,2.57c-.38-.1-.71-.35-.91-.7q-.11-.19-.75-2.26c-.07-.22-.14-.45-.2-.66-.02,0-.03.02-.05.03-2.25,1.33-2.26,1.34-2.88,1.17-.6-.04-2.95-.02-4.69,0-2.32.02-3.69.03-4.54-.02-.08.05-.16.1-.24.15-1.05.64-1.36.83-2.01.67-.05-.01-.1-.03-.14-.04-.54-.09-2.58-.27-3.96-.4-1.67-.15-2.73-.24-3.42-.34-.08.05-.17.1-.25.15-1,.6-1.3.79-1.93.63-.11-.03-.22-.07-.33-.12-.4-.14-1.87-.56-2.96-.87-1.18-.34-1.98-.56-2.53-.74-.49.28-1.23.72-1.83,1.07q-2.98,1.75-3.61,1.59c-.1-.03-.2-.06-.3-.11-.51-.15-2.46-.57-3.78-.85-1.53-.33-2.52-.54-3.16-.7-.06.04-.12.07-.18.11-.93.57-1.27.79-1.92.62-.22-.06-.43-.16-.6-.31-.27-.19-1.48-.96-2.37-1.53-.77-.49-1.33-.85-1.74-1.11-.5.29-1.18.69-1.74,1.02q-3.04,1.79-3.67,1.62c-.14-.04-.27-.09-.39-.16-.41-.17-1.95-.68-3-1.02-1.18-.39-1.97-.65-2.52-.85-.25.15-.56.33-.88.52q-2.35,1.39-2.99,1.22c-.14-.04-.28-.1-.4-.17-.35-.16-1.69-.67-2.68-1.05-1.35-.52-2.23-.86-2.82-1.1-.02,0-.03.02-.05.03-1.02.62-1.35.82-1.9.72-.68.04-3.28.38-5.2.63-3.27.43-5.05.66-6.07.7-.11.07-.24.15-.36.22-.95.58-1.3.8-1.95.64-.06-.02-.12-.04-.18-.06-.47-.11-2.21-.38-3.51-.58-1.46-.23-2.41-.38-3.05-.5-.62.36-1.78,1.04-2.69,1.57q-3.21,1.88-3.84,1.72c-.19-.05-.37-.14-.52-.25-.32-.19-1.68-.91-2.67-1.44-.92-.49-1.57-.83-2.03-1.08,0,0,0,0,0,0-.96.59-1.29.79-1.93.63-.04-.01-.09-.02-.13-.04-.52-.08-2.42-.26-3.84-.38-1.81-.16-2.94-.27-3.67-.37-.08.05-.16.1-.24.15-.99.61-1.32.81-1.97.65-.15-.04-.3-.1-.43-.19-.35-.15-1.57-.62-2.48-.96-.99-.37-1.67-.63-2.15-.82-.22.07-.48.1-.78.04,0,0-.02,0-.02,0-.75,0-3.52.32-5.57.54-3.2.35-4.93.55-5.93.56-.09.06-.19.12-.3.18-.99.61-1.32.81-1.91.67-.67,0-3.1.17-4.92.3-2.8.2-4.38.31-5.32.3-.21.12-.49.29-.77.46-1.57.95-1.73,1.05-2.38.88-.39-.1-.72-.35-.92-.7-.11-.19-.12-.2-.98-2.83-.05-.16-.1-.32-.15-.47-.58.34-1.25.73-1.82,1.06-.78.46-1.55.91-2.13,1.24-.86.5-1.81,1.05-2.55.53-.5-.16-1.66-.51-2.54-.77-1.16-.34-1.94-.58-2.49-.75-.06.04-.12.07-.18.11-.96.59-1.29.79-1.93.62-.05-.01-.09-.03-.14-.04-.48-.09-2.32-.31-3.69-.47-2.19-.26-3.48-.42-4.28-.56-.33.19-.81.47-1.29.76q-2.64,1.56-3.27,1.39c-.1-.03-.19-.06-.28-.1-.39-.13-1.9-.54-3.02-.84-1.53-.41-2.52-.68-3.16-.87-.06.03-.11.07-.17.1-.98.6-1.3.8-1.95.64-.04-.01-.08-.02-.12-.04-.54-.08-2.57-.25-4.08-.37-2.18-.18-3.48-.28-4.28-.4-.08.05-.17.1-.25.16-.99.61-1.33.82-1.98.65-.06-.01-.12-.03-.17-.05-.54-.09-2.44-.26-3.86-.38-1.83-.16-2.96-.26-3.68-.36-.08.05-.16.1-.24.15-1,.61-1.34.82-1.98.65-.16-.04-.31-.11-.45-.2-.32-.16-1.55-.68-2.47-1.07-1.32-.56-2.17-.93-2.74-1.19-.45.26-1.07.63-1.58.93q-2.53,1.49-3.16,1.33s-.04-.01-.07-.02c-.46-.06-2.11-.18-3.34-.26-1.99-.14-3.19-.22-3.95-.32-.1.06-.21.13-.33.2-.95.58-1.27.78-1.91.61-.25-.06-.47-.19-.65-.36-.23-.18-1.14-.83-1.82-1.31-.62-.44-1.08-.76-1.42-1.01-.86.5-2.28,1.32-3.49,2.03l-2.74,1.6c-1.18.68-2.09,1.22-2.8.72-.58-.15-1.9-.44-2.91-.66-1.52-.33-2.49-.55-3.13-.71-.05.03-.09.06-.14.08-.84.51-1.19.73-1.83.56-.31-.08-.58-.25-.78-.49-.18-.19-1.03-1.01-1.65-1.61-.33-.32-.59-.57-.81-.78-.42.25-.92.54-1.34.79q-2.62,1.55-3.25,1.38c-.16-.04-.31-.11-.44-.2-.32-.16-1.54-.69-2.44-1.09-.84-.37-1.44-.63-1.87-.83-.77.44-2.12,1.23-3.18,1.85q-4.1,2.39-4.73,2.23c-.22-.06-.41-.16-.58-.3-.29-.19-1.43-.88-2.28-1.38-.85-.51-1.45-.87-1.88-1.13-.53.32-.89.47-1.44.33-.39-.1-.73-.35-.93-.7q-.45-.78,1.81-5.37c.03-.06.06-.12.09-.18-3.86,2.25-3.89,2.24-4.49,2.08-.39-.1-.72-.35-.92-.7q-.5-.86,2.34-5.71c.34-.57.73-1.24,1.07-1.84-.12-.27-.19-.75-.63-3.67-.03-.24-.07-.48-.11-.73-.02,0-.04,0-.06-.01-.39-.1-.73-.35-.93-.7q-.32-.56.48-4.14c-.49.24-.64.2-1.01.1-.39-.1-.72-.35-.92-.7-.51-.89-.54-.93,2.56-5.33-.62.3-.77.26-1.11.17-.38-.1-.71-.35-.91-.7q-.44-.76,1.71-5.2c.32-.65.69-1.42,1.01-2.09,0,0,0-.01-.01-.02-.47-.82-.49-.85,1.85-4.84-1.48.84-1.59.81-2.06.68-.39-.1-.72-.35-.92-.7q-.36-.63.76-4.33c.28-.92.67-2.2.86-2.89-.03-.38,0-1.08.1-2.8.02-.32.04-.7.06-1.07-.27-.13-.5-.34-.65-.6q-.3-.52.28-4.07c.05-.31.11-.65.16-.98-.18-.12-.33-.29-.45-.48-.36-.63-.38-.66.8-4.19l-1.23.72c-1.03.59-2.19,1.27-2.96,0-.53-.91-.55-.95,2.74-6.04l-.59.34c-1.18.68-2.3,1.33-3.06.05q-.52-.9,2.51-5.74c.53-.85,1.17-1.88,1.69-2.71-.18-.38-.12-.78.33-3.66.08-.49.17-1.07.25-1.62-.19-.13-.36-.3-.48-.5q-.09-.15-.87-2.22c-.08-.21-.16-.43-.24-.64-.5.27-.77.32-1.21.2-.39-.1-.72-.35-.93-.7-.58-1.01-.59-1.03,3.58-5.93-.65.21-1.25.15-1.71-.64q-.57-.99,3.23-6.25c.45-.62.96-1.32,1.43-1.98-.02-.03-.04-.07-.07-.1-.05-.08-.06-.1-1.23-2.49-.16-.33-.32-.66-.47-.96-.18.03-.38.02-.6-.04-.39-.1-.72-.35-.92-.7q-.3-.51.22-3.96c.08-.52.17-1.15.26-1.73-.2-.13-.36-.3-.48-.51q-.31-.54.3-4.5c.05-.31.1-.66.15-1.01-.18-.13-.34-.29-.45-.49q-.44-.77,1.61-5.5c-3.29,1.92-3.31,1.91-3.91,1.75-.38-.1-.71-.35-.91-.7q-.46-.8,2-5.68c.38-.75.82-1.63,1.19-2.38-.28-.49-.28-.55.27-4.04.06-.38.13-.81.19-1.23-.18-.12-.33-.29-.44-.48q-.24-.41-.18-3.31c0-.32.01-.7.02-1.07-.37-.11-.69-.35-.89-.69q-.38-.65.89-5.15c.12-.44.26-.93.39-1.4-.09-.09-.18-.2-.24-.32q-.3-.52.22-3.78c.07-.41.14-.89.22-1.36-.18-.12-.33-.29-.44-.48q-.3-.52.22-3.91c.07-.45.15-1,.23-1.51-.19-.13-.34-.29-.46-.49q-.31-.54.27-4.51c.06-.39.12-.84.18-1.26-.19-.13-.34-.29-.46-.49-.39-.67-.4-.69.91-4.42-2.7,1.58-2.76,1.57-3.34,1.42l.38-1.45,1.3-.75-1.3.75-.63-1.36c.24-.12,1.81-1.04,2.95-1.71q3.05-1.79,3.68-1.62c.39.1.72.35.91.7q.39.68-.99,4.62c-.17.48-.37,1.06-.56,1.6.06.07.11.14.16.22q.3.52-.24,4.2c-.07.47-.15,1.03-.23,1.56.19.13.35.3.47.5q.31.54-.29,4.47c-.05.3-.1.63-.15.96.18.12.33.29.44.48q.31.54-.29,4.33c-.04.26-.09.54-.13.82.17.12.32.28.43.47q.36.62-.75,4.54c-.15.53-.33,1.16-.49,1.76.16.12.3.27.4.45q.25.44.18,3.96c0,.2,0,.4-.01.61.28.13.52.34.68.62q.3.52-.27,4.19c-.05.35-.11.73-.17,1.11.18.12.33.29.44.48q.46.79-1.94,5.56c2.88-1.67,2.93-1.66,3.5-1.5.38.1.71.35.91.7q.44.76-1.56,5.37c-.31.7-.67,1.53-.97,2.25.03.04.05.07.07.11q.3.51-.23,3.97c-.07.46-.15,1.01-.23,1.53.19.13.35.3.47.5q.32.55-.31,4.7c-.05.31-.1.66-.15,1,.19.13.35.3.46.5.04.08.06.1,1.18,2.4.16.32.32.65.47.95.79-.46,1.02-.52,1.54-.39.39.1.73.35.93.7.54.93.57.99-2.67,5.47,1.12-.64,2.08-1.05,2.78.12q.64,1.11-4.83,7.54c-.59.69-1.24,1.45-1.82,2.14.1.25.32.81.86,2.25.06.17.13.34.19.5.14-.01.29,0,.46.05.39.1.72.35.92.7q.32.55-.32,4.61c-.04.27-.09.57-.13.86.19.13.34.29.46.49.49.85.52.9-2.24,5.31l.65-.38c1.28-.74,2.39-1.39,3.15-.09q.52.91-2.81,6.06c.82-.44,1.79-.78,2.43.31q.38.66-.87,4.39c-.15.46-.34,1-.51,1.52.07.08.13.16.19.26q.3.52-.27,3.99c-.06.33-.12.7-.17,1.06.18.12.34.29.45.48q.26.45.07,3.88c-.03.59-.07,1.32-.1,1.81.24.48.14.85-.85,4.13l1.55-.9c.96-.56,2.16-1.25,2.92.05q.51.88-2.37,5.78c-.36.61-.77,1.32-1.14,1.94.34.62.23.91-1.64,4.77l.64-.37c.95-.55,2.12-1.23,2.88.06q.55.95-3.2,6.26c-.17.24-.35.5-.53.76.13.11.26.27.37.47q.34.58-.52,4.36c-.08.34-.17.73-.25,1.1.13.11.24.24.32.39q.17.29.57,3.02c.07.45.15.99.22,1.49.04,0,.09.02.13.03.39.1.72.35.92.7.46.8.48.84-1.75,4.66,3.27-1.9,3.31-1.89,3.89-1.73.38.1.7.35.9.7q.47.81-2.07,5.94c-.26.53-.56,1.13-.83,1.69.49.31,1.41.85,2.12,1.28.79.47,1.35.81,1.76,1.06.71-.41,1.82-1.06,2.77-1.62q4.39-2.57,5.03-2.4c.15.04.3.1.43.19.3.15,1.45.65,2.31,1.03.92.4,1.56.68,2.02.89.41-.24.95-.56,1.4-.82q2.86-1.69,3.5-1.52c.3.08.56.25.76.48.18.18.83.81,1.49,1.45.4.38.71.68.96.92.66-.39.99-.53,1.54-.39.1.02.19.06.28.1.45.13,2.09.49,3.31.76,1.38.3,2.29.5,2.9.66.74-.43,2.18-1.27,3.4-1.98q4.87-2.84,5.5-2.67c.25.07.47.19.65.36.25.19,1.25.91,2,1.44.51.36.91.64,1.21.86.94-.58,1.26-.75,1.87-.59.05.01.09.02.13.04.55.08,2.56.22,3.91.32,1.6.11,2.63.18,3.3.26.4-.23,1.03-.6,1.53-.9.56-.33,1.14-.67,1.58-.93.65-.38,1.69-.98,2.46-.29.52.25,1.98.87,2.99,1.3.93.4,1.58.68,2.05.88.04-.02.07-.04.11-.07.96-.59,1.28-.79,1.92-.63.05.01.11.03.16.05.51.09,2.33.24,3.67.36,1.96.17,3.15.28,3.9.39.09-.05.18-.11.27-.17.96-.59,1.28-.79,1.93-.63.05.01.09.03.14.04.56.09,2.7.27,4.29.39,2.04.17,3.28.27,4.06.38.09-.05.18-.11.28-.17.98-.6,1.31-.8,1.96-.64.11.03.22.07.32.12.45.15,2.21.63,3.4.95,1.3.35,2.16.58,2.75.76.43-.25,1.05-.62,1.52-.89q2.34-1.38,2.97-1.22c.06.02.11.03.17.05.57.11,2.81.38,4.32.56,1.76.21,2.87.34,3.58.46.08-.05.16-.1.25-.15,1.01-.62,1.32-.81,1.96-.65.11.03.22.07.32.12.37.13,1.76.55,2.8.85,1.11.33,1.86.55,2.39.72.6-.35,1.6-.94,2.46-1.44q3.92-2.3,4.56-2.13c.39.1.71.35.91.7q.11.19.86,2.49c.08.25.17.52.26.8,1.12-.67,1.36-.77,1.9-.65.68.04,3.24-.18,5.15-.31,2.64-.19,4.17-.3,5.07-.29.13-.08.27-.17.42-.26.93-.56,1.25-.76,1.86-.61.74,0,3.53-.32,5.59-.54,3.16-.35,4.88-.54,5.88-.55.28-.15.64-.27,1.09-.17.17.04.33.1.48.2.34.15,1.56.61,2.46.95.98.37,1.66.62,2.15.82.04-.02.08-.05.12-.07.95-.58,1.27-.77,1.91-.61.04.01.08.02.12.03.5.08,2.35.25,3.72.37,1.9.17,3.06.28,3.8.38.08-.05.17-.1.25-.16.97-.6,1.3-.8,1.95-.63.19.05.37.14.53.25.31.18,1.59.86,2.53,1.36,1.01.53,1.7.9,2.19,1.17.53-.31,1.28-.75,1.93-1.13q3.73-2.19,4.37-2.02s.1.03.14.05c.43.09,2.02.34,3.21.53,1.65.26,2.69.42,3.37.56.08-.05.15-.1.23-.14.88-.54,1.23-.76,1.82-.65.75-.03,3.65-.41,5.79-.69,2.86-.38,4.47-.59,5.43-.63.15-.09.33-.2.51-.31.95-.57,1.26-.77,1.9-.61.16.04.31.11.45.2.41.19,2.05.82,3.16,1.24,1.07.41,1.81.69,2.32.9.35-.21.81-.48,1.16-.68q2.05-1.22,2.69-1.05c.13.03.26.09.37.15.38.15,1.78.62,2.81.96,1.3.43,2.16.71,2.73.92.51-.29,1.26-.74,1.86-1.09q3.08-1.81,3.72-1.64c.22.06.41.16.58.3.27.19,1.44.94,2.31,1.49.8.51,1.37.87,1.78,1.14.88-.54,1.23-.74,1.86-.58.1.02.19.06.28.1.45.13,2.1.48,3.33.74,1.84.39,2.96.63,3.67.82.49-.29,1.26-.74,1.87-1.1q2.96-1.74,3.59-1.57c.1.03.2.07.3.11.38.13,1.78.53,2.81.82,1.27.36,2.11.6,2.69.78.05-.03.1-.06.16-.1.95-.58,1.28-.77,1.91-.61.03,0,.07.02.1.03.47.07,2.21.23,3.49.34,1.99.18,3.19.28,3.95.4.1-.06.22-.13.33-.2.87-.53,1.2-.73,1.82-.57.58.04,2.83.02,4.5,0,2.46-.02,3.9-.04,4.77.02.32-.19.82-.48,1.31-.77q2.19-1.3,2.82-1.13c.39.1.72.35.92.7.12.2.12.21.91,2.77.02.05.03.11.05.16.77-.45,1.72-1,2.56-1.49l3.02-1.75c1.59-.92,2.58-1.49,3.33-.42.24.24.88.85,1.53,1.47.39.37.7.67.94.9.76-.46,1.09-.61,1.66-.46.05.01.09.03.14.04.56.09,2.66.24,4.22.36,2.2.16,3.5.26,4.3.37.09-.05.19-.11.28-.17.87-.53,1.21-.74,1.81-.61.59.02,2.86-.14,4.53-.25,2.92-.19,4.54-.3,5.49-.28.2-.12.47-.28.74-.44,1.62-.97,1.76-1.05,2.39-.88.39.1.72.35.92.7q.28.49-.06,3.99c-.02.23-.05.48-.07.74.34.12.62.35.8.67q.48.83-1.97,5.42c-.26.49-.56,1.05-.84,1.57v.02q.44.74-1.46,5.23c-.15.36-.32.76-.48,1.15.11.1.21.22.28.35q.51.89-2.71,5.9c-.04.06-.08.12-.12.19,1.65-.94,1.76-.91,2.24-.79.39.1.72.35.92.7q.63,1.09-5,7.67c-.93,1.08-2.04,2.38-2.91,3.43.26.63-.1,1.22-2.64,5.48-.41.68-.88,1.47-1.3,2.18.02.02.03.05.04.07q.6,1.03-4.22,7.05c-.8.99-1.73,2.16-2.53,3.18,0,0,0,0,0,.01.53.92.54.94-2.81,5.89.23-.06.38-.02.61.04.39.1.72.35.91.7q.48.84-2.08,5.24c-.34.58-.74,1.27-1.11,1.92.02.03.05.07.07.11.58,1,.61,1.06-3.74,6.67,2-1.14,2.11-1.11,2.59-.98.39.1.71.35.91.7q.59,1.03-4.24,6.83c-.97,1.16-2.13,2.56-3.03,3.66.4.8,0,1.29-4.07,5.97.83-.42.99-.38,1.34-.29.39.1.71.35.91.7q.55.95-3.44,6.41c-.67.92-1.47,2.01-2.13,2.93.35.65.2.95-1.93,5.21-.29.58-.62,1.24-.93,1.86.09.09.17.19.24.31q.55.95-3.35,6.57c-.49.7-1.05,1.51-1.55,2.24.44.78.33.97-2.56,5.73-.3.49-.63,1.04-.95,1.56,0,.01.01.02.02.04.5.86.52.9-2.41,5.81.84-.44,1.74-.7,2.36.36.42.71.18,1.63-.53,2.05-.05.03-.1.06-.15.08-.3.17-1.63.94-2.61,1.51-2.2,1.29-2.72,1.59-3.12,1.59ZM243.69,282.93c.05.08.1.15.16.22-.06-.07-.11-.14-.16-.22ZM243.69,282.93s0,0,0,0c0,0,0,0,0,0ZM243.68,282.93s0,0,0,0c0,0,0,0,0,0ZM114.07,282.02c.11.18.24.32.36.42-.15-.11-.27-.26-.36-.42ZM303.77,281.99c.1.17.22.3.35.4-.14-.11-.25-.25-.35-.4ZM264.64,281.99c.06.11.14.2.21.29-.08-.09-.15-.18-.21-.29ZM143.08,282.03c.06.09.12.18.19.25-.07-.08-.13-.16-.19-.25ZM82.1,282.02c.05.09.1.16.16.23-.06-.07-.12-.15-.16-.23ZM92.82,282.02c.03.05.06.1.09.14-.03-.05-.07-.09-.09-.14ZM143.08,282.02s0,0,0,0c0,0,0,0,0,0ZM114.07,282.02s0,0,0,0c0,0,0,0,0,0ZM143.07,282.01s0,0,0,0c0,0,0,0,0,0ZM61.82,281.88h0ZM61.82,281.87s0,0,0,0c0,0,0,0,0,0ZM61.81,281.87h0s0,0,0,0ZM61.81,281.86s0,0,0,0c0,0,0,0,0,0ZM61.81,281.86s0,0,0,0c0,0,0,0,0,0ZM61.8,281.85s0,0,0,0c0,0,0,0,0,0ZM61.8,281.84s0,0,0,0c0,0,0,0,0,0ZM61.8,281.84s0,0,0,0c0,0,0,0,0,0ZM61.79,281.83s0,0,0,0c0,0,0,0,0,0ZM61.79,281.83s0,0,0,0c0,0,0,0,0,0ZM61.79,281.82s0,0,0,0c0,0,0,0,0,0ZM224.24,281.71h0ZM224.24,281.7s0,0,0,0c0,0,0,0,0,0ZM224.24,281.7s0,0,0,0c0,0,0,0,0,0ZM224.24,281.69s0,0,0,0c0,0,0,0,0,0ZM224.23,281.69s0,0,0,0c0,0,0,0,0,0ZM276.13,281.2c.1.16.21.29.33.39-.13-.11-.25-.24-.33-.39ZM276.13,281.19s0,0,0,0c0,0,0,0,0,0ZM134.78,281.07s0,0,0,0c0,0,0,0,0,0ZM134.77,281.07s0,0,0,0c0,0,0,0,0,0ZM134.77,281.06s0,0,0,0c0,0,0,0,0,0ZM134.6,280.83c.06.07.12.15.17.23-.05-.09-.11-.16-.17-.23ZM316.09,280.84s0,0,0,0c0,0,0,0,0,0ZM315.95,280.64c.04.07.09.14.14.2-.05-.06-.1-.13-.14-.2ZM35.26,280.65s0,0,0,0c0,0,0,0,0,0ZM35.26,280.64s0,0,0,0c0,0,0,0,0,0ZM35.11,280.43c.05.06.1.13.15.21-.05-.08-.09-.15-.15-.21ZM315.95,280.63s0,0,0,0c0,0,0,0,0,0ZM315.94,280.63s0,0,0,0c0,0,0,0,0,0ZM156.95,280.24s.06.08.1.11c-.03-.04-.07-.07-.1-.11ZM206.46,279.79c.12.2.26.34.41.45-.16-.12-.3-.27-.41-.45ZM206.45,279.79s0,0,0,0c0,0,0,0,0,0ZM86.08,279.3c.09.09.16.19.23.3-.07-.12-.14-.21-.23-.3ZM76.38,279.59s0,0,0,0c0,0,0,0,0,0ZM238.18,279.22c.12.11.22.23.3.37-.09-.16-.2-.28-.3-.37ZM166.89,279.59s0,0,0,0c0,0,0,0,0,0ZM296.82,279.27c.1.1.19.2.26.33-.07-.13-.16-.24-.26-.33ZM307.88,279.59s0,0,0,0c0,0,0,0,0,0ZM147.25,279.59s0,0,0,0c0,0,0,0,0,0ZM268.77,279.59s0,0,0,0c0,0,0,0,0,0ZM56.09,279.22c.12.1.22.23.3.37-.09-.15-.19-.27-.3-.37ZM259.07,279.59s0,0,0,0c0,0,0,0,0,0ZM76.37,279.59s0,0,0,0c0,0,0,0,0,0ZM166.89,279.59s0,0,0,0c0,0,0,0,0,0ZM146.96,279.24c.11.1.21.22.28.35-.08-.14-.18-.25-.28-.35ZM268.77,279.58s0,0,0,0c0,0,0,0,0,0ZM307.88,279.58s0,0,0,0c0,0,0,0,0,0ZM259.07,279.58s0,0,0,0c0,0,0,0,0,0ZM76.37,279.58s0,0,0,0c0,0,0,0,0,0ZM268.44,279.2c.13.11.24.24.33.38-.09-.16-.21-.28-.33-.38ZM307.71,279.35c.06.07.12.15.17.23-.05-.09-.11-.16-.17-.23ZM76.37,279.58s0,0,0,0c0,0,0,0,0,0ZM259.07,279.58h0ZM76.36,279.57s0,0,0,0c0,0,0,0,0,0ZM76.36,279.57s0,0,0,0c0,0,0,0,0,0ZM76.36,279.56s0,0,0,0c0,0,0,0,0,0ZM76.36,279.56h0,0ZM76.35,279.55s0,0,0,0t0,0ZM107.96,279.31s0,0,0,0c0,0,0,0,0,0ZM107.96,279.3s0,0,0,0c0,0,0,0,0,0ZM7.32,166.43h0,0Z"/>
  </g>
</svg>