<?xml version="1.0" encoding="UTF-8"?>
<svg id="Layer_1" data-name="Layer 1" xmlns="http://www.w3.org/2000/svg" viewBox="0 0 376.54 489.08">
  <defs>
    <style>
      .cls-1 {
        fill: #231f20;
      }
    </style>
  </defs>
  <path class="cls-1" d="M241.78,5.03c0,.57-.1,1.15-.3,1.71-.48,1.33-1.47,2.33-2.67,2.86-6.39,9.05-28.32,76.47-46.02,130.91-10.49,32.27-21.34,65.63-30.06,90.61-15.17,43.5-18,44.88-20.74,46.22-1.42.69-2.98.78-4.42.26-5.31-1.93-4.36-8.36-2.32-17.96,1.51-7.08,4.09-17.07,7.9-30.52,7.03-24.85,17.32-58.21,27.27-90.47,1.76-5.72,3.57-11.59,5.4-17.52-20.24,61.62-23.93,69.52-28,71.5-1.35.66-2.86.75-4.24.24-5.71-2.08-4.72-8.43,2.02-34.71,3.48-13.58,8.28-30.89,13.23-48.54-5.35,15.04-6.75,16.43-8.92,17.49-1.3.63-2.76.71-4.11.23-4.14-1.51-3.88-6.26-3.68-10.08.16-3.03.57-7.27,1.25-12.97,1.24-10.45,3.22-24.45,5.15-37.98.68-4.77,1.41-9.94,2.13-15.13-1.31,3.08-2.05,3.57-3.33,4.19-1.22.6-2.71.68-3.98.21-3.65-1.33-3.76-4.69-3.97-11.39-.13-4.06-.18-9.47-.23-14.71-.04-4.37-.09-9.68-.2-13.75-1.76-1.28-2.53-3.61-1.75-5.75.08-.23.18-.45.29-.65.09-.27.2-.63.31-.98.7-2.23,1.2-3.84,3.22-4.84,1.22-.61,2.66-.69,3.94-.22,3.65,1.33,3.76,4.69,3.97,11.39.09,2.84.14,6.33.18,9.97,5.21-15.94,5.76-16.62,8.06-17.75,1.22-.59,2.71-.68,3.98-.21,4.14,1.51,3.88,6.26,3.68,10.08-.16,3.03-.57,7.27-1.25,12.97-1.24,10.44-3.22,24.44-5.14,37.98-.92,6.48-1.95,13.71-2.9,20.71,2.74-8.21,5.58-16.93,8.1-24.64C181.89,7.73,183.4,5.2,186.83,3.53c1.3-.63,2.76-.71,4.11-.23,5.71,2.08,4.72,8.43-2.02,34.71-4.33,16.88-10.69,39.52-16.85,61.42-.65,2.31-1.31,4.68-1.99,7.08,1.15-3.53,2.28-6.98,3.36-10.32C200.03,14.52,204.07,5.06,208.57,2.87c1.35-.66,2.86-.75,4.24-.24,5.31,1.93,4.36,8.37,2.32,17.96-1.51,7.08-4.09,17.07-7.9,30.52-7.03,24.85-17.32,58.22-27.27,90.48-7.49,24.3-15.81,51.28-22.6,74.36,8.18-24.03,17.52-52.74,25.91-78.53,10.49-32.26,21.34-65.63,30.05-90.61C228.5,3.31,231.33,1.93,234.07.59c1.42-.69,2.98-.78,4.42-.26,2.03.74,3.29,2.66,3.29,4.7ZM235.08,9.73h0s0,0,0,0ZM143.58,6.97,143.57,6.97h0,0ZM143.56,6.97s0,0,0,0t0,0ZM143.55,6.96s0,0,0,0c0,0,0,0,0,0ZM143.54,6.96s0,0,0,0c0,0,0,0,0,0ZM143.54,6.96s0,0,0,0c0,0,0,0,0,0ZM143.53,6.95h0,0ZM143.52,6.95h0,0ZM143.51,6.95h0ZM137.95,8.57c.1-.12.2-.24.3-.35-.11.11-.21.23-.3.35Z"/>
  <path class="cls-1" d="M376.54,294.08c0,.57-.1,1.15-.3,1.71-.21.57-.5,1.07-.87,1.51-.74,1.77-2.35,6.87-3.45,10.36-3.93,12.43-4.44,13.84-6.88,15.04-1.22.6-2.71.69-3.99.22-3.08-1.12-3.48-3.84-4.08-7.96-.1-.71-.21-1.5-.33-2.33-1.38,4.15-2.8,8.51-4.06,12.38-9.92,30.46-10.66,31.8-13.45,33.17-1.27.62-2.7.7-4.01.22-3.55-1.29-3.91-4.56-4.86-13.29-.59-5.4-1.22-12.61-1.83-19.58-.3-3.37-.63-7.14-.96-10.79-3.86,11.01-8.77,26.06-12.8,38.43-17.6,53.98-19.06,56.42-22.43,58.06-1.3.63-2.76.71-4.1.23-4.89-1.78-4.33-6.56-1.64-22.83,1.68-10.19,4.26-23.84,6.76-37.04.68-3.6,1.41-7.44,2.14-11.34-3.46,10.37-7.1,21.57-10.46,31.88-21.69,66.58-24.6,73.27-28.61,75.23-1.33.65-2.81.73-4.17.23-3.2-1.16-3.81-4.01-3.58-7.12-7.52,21.39-9.9,25.1-12.62,26.43-1.34.65-2.84.74-4.21.24-5.08-1.85-3.8-7.97-2.68-13.37.83-4,2.2-9.46,4.16-16.62-2.17,6.48-4.24,12.58-6.16,18.1-10.84,31.1-12.92,32.12-15.33,33.29-1.36.67-2.88.75-4.27.25-5.11-1.86-4-8.35-2.94-14.63.9-5.3,2.5-12.76,4.89-22.81,4.41-18.52,10.94-43.37,17.26-67.4,3.77-14.33,8.06-30.68,11.9-45.79-5.21,15.59-10.76,32.7-15.6,47.64-28.59,88.21-32.94,98.42-37.79,100.79-1.37.67-2.9.76-4.3.25-5.6-2.04-3.93-9.65-2.33-17.01,1.42-6.52,3.86-15.72,7.43-28.1,6.6-22.86,16.25-53.55,25.58-83.24.01-.04.03-.08.04-.12-32.96,101.35-38.75,115.59-44.16,118.23-1.39.68-2.94.77-4.36.25-5.52-2.01-4.42-9.04-2.11-19.54,1.75-7.96,4.74-19.19,9.14-34.32,8.13-27.97,20.01-65.53,31.49-101.85,9.93-31.42,21.12-66.79,29.46-94.95-8.9,25.91-19.38,58.15-28.72,86.88-10.84,33.33-22.04,67.79-31.04,93.6-15.65,44.87-18.68,46.35-21.35,47.65-1.42.69-3,.79-4.44.26-5.81-2.11-4.46-9.84-1.72-21.39,2.12-8.97,5.71-21.63,10.97-38.7,9.72-31.56,23.87-73.95,37.55-114.94,12.82-38.42,26.08-78.15,35.64-108.81,1.16-3.73,2.24-7.22,3.23-10.47-1.01,2.86-2.08,5.9-3.2,9.13-10.3,29.68-22.97,68.64-35.23,106.32-12.68,38.97-25.79,79.27-36.32,109.44-18.19,52.14-21.55,53.78-24.51,55.22-1.45.71-3.06.8-4.52.27-5.3-1.93-4.76-8.48-2.41-18.37-2.78,5.37-4.79,7.66-6.6,8.54-1.48.72-3.12.82-4.6.28-4.86-1.77-4.34-6.56-1.78-22.92,1.61-10.26,4.08-24.02,6.48-37.32.45-2.47.91-5.06,1.38-7.7-13.57,42.08-15.25,45.74-18.53,47.34-1.3.64-2.76.72-4.1.23-4.26-1.55-4.26-5.56-3.58-19.27.41-8.44,1.22-19.74,2-30.67.34-4.79.72-10.1,1.07-15.31-.79,2.42-1.55,4.81-2.27,7.05-11.23,34.87-12.13,36.24-15.04,37.67-1.29.63-2.73.71-4.06.22-4.15-1.51-4.05-5.78-3.82-16.1.15-6.66.55-15.57.94-24.18.09-2.08.19-4.28.29-6.52-.06.18-.12.35-.17.53-9.03,27.94-9.73,29.18-12.49,30.53-1.25.61-2.72.69-4.02.22-3.95-1.44-3.9-4.99-2.97-11.75-1.53,3.66-2.27,4.02-3.58,4.66-1.22.59-2.72.68-3.99.21-3.82-1.39-3.82-5.09-3.83-12.46v-.14c0-3.35.07-7.5.16-11.78-1.64,4.48-2.4,5.17-3.98,5.94-1.22.6-2.71.68-3.99.22-2.5-.91-2.7-1.26-10.7-18.6-.79-1.71-1.66-3.6-2.53-5.46-.64,1.35-1.31,2.01-2.47,2.58-1.22.6-2.67.68-3.96.22-1.15-.42-1.26-.52-6.88-5.63-.67-.61-1.44-1.31-2.16-1.96-.63.02-1.27-.07-1.88-.29-2.6-.93-3.95-3.79-3.02-6.39.04-.12.09-.24.14-.36l.02-.08c.29-.95.82-2.72,2.79-3.71,1.23-.62,2.66-.7,3.96-.23,1.13.41,1.26.52,6.5,5.28,1.39-4.37,1.96-5.57,3.91-6.53,1.22-.6,2.67-.68,3.96-.22,2.49.91,2.69,1.25,10.7,18.6.83,1.81,1.77,3.83,2.68,5.79.5-1.55.99-3.08,1.42-4.43,5.09-15.94,5.54-16.96,8.02-18.18,1.22-.6,2.71-.68,3.99-.22,3.82,1.39,3.83,5.09,3.83,12.46v.14c0,3.62-.08,8.17-.18,12.81,8.2-25.11,8.57-25.29,11.11-26.53,1.22-.59,2.72-.68,3.99-.21,3.79,1.38,3.9,4.71,3.08,10.96,2.69-7.42,3.61-8.22,5.34-9.07,1.25-.61,2.72-.69,4.02-.22,4.15,1.51,4.05,5.78,3.81,16.09-.15,6.66-.55,15.56-.94,24.17-.11,2.4-.22,4.98-.34,7.58.97-2.99,1.93-5.96,2.81-8.71,11.23-34.88,12.13-36.25,15.05-37.68,1.29-.63,2.73-.71,4.06-.22,4.26,1.55,4.26,5.57,3.58,19.27-.41,8.44-1.22,19.74-2,30.67-.37,5.23-.79,11.06-1.17,16.71,2.01-6.1,4.08-12.5,5.91-18.19,13.59-42.14,15.27-45.8,18.55-47.41,1.3-.64,2.76-.72,4.1-.23,4.86,1.77,4.34,6.56,1.78,22.92-1.61,10.26-4.08,24.02-6.48,37.32-1.61,8.94-3.48,19.34-5.04,28.53,3.48-8.86,8.07-21.33,14.15-38.83,11.7-33.72,26.13-78.06,40.08-120.95,50.95-156.64,61.37-182.8,68.64-186.34,1.48-.72,3.12-.82,4.6-.28,6.13,2.23,4.45,10.67,1.17,23.29-1.99,7.67-5,17.77-9.14,30.65.46-.33.87-.53,1.27-.73,1.45-.71,3.06-.8,4.52-.27,5.81,2.11,4.46,9.84,1.72,21.39-2.12,8.97-5.71,21.63-10.97,38.7-4.7,15.25-10.43,33.03-16.64,51.96.39-1.14.78-2.26,1.17-3.37,15.65-44.88,18.68-46.35,21.35-47.66,1.42-.69,3-.79,4.44-.26,5.52,2.01,4.42,9.04,2.11,19.54-1.75,7.96-4.74,19.19-9.14,34.32-8.13,27.97-20.01,65.53-31.49,101.85-7.85,24.81-16.47,52.09-23.86,76.34,5.24-15.8,10.6-32.3,15.4-47.05,33.48-103,39.31-117.4,44.75-120.06,1.39-.68,2.94-.77,4.36-.25,5.6,2.03,3.93,9.65,2.33,17.01-1.42,6.52-3.86,15.72-7.43,28.1-3.69,12.79-8.34,28.02-13.35,44.16,11.37-33.34,14.52-38.84,17.91-40.5,1.37-.67,2.9-.76,4.3-.25,5.11,1.86,4,8.35,2.94,14.63-.9,5.3-2.5,12.76-4.89,22.8-4.41,18.52-10.94,43.36-17.26,67.39-3.6,13.71-7.69,29.27-11.4,43.83,4.62-13.87,9.43-28.68,13.68-41.77,7.36-22.64,14.96-46.06,21.08-63.6,10.84-31.1,12.92-32.11,15.33-33.29,1.36-.67,2.88-.75,4.27-.25,5.08,1.85,3.8,7.97,2.68,13.37-.75,3.63-1.95,8.45-3.62,14.66,6.98-19.67,9.29-23.19,11.93-24.47,1.34-.65,2.84-.74,4.21-.24,3.68,1.34,3.95,4.9,3.43,8.56,2.88-6.93,4.4-8.64,6.13-9.48,1.33-.65,2.81-.73,4.17-.23,4.89,1.78,4.33,6.55,1.64,22.84-1.68,10.19-4.26,23.84-6.76,37.04-.43,2.28-.88,4.66-1.34,7.09,1.18-3.6,2.33-7.13,3.42-10.46,17.6-53.98,19.06-56.42,22.43-58.06,1.3-.63,2.76-.71,4.1-.23,3.55,1.29,3.91,4.56,4.86,13.29.59,5.39,1.22,12.61,1.83,19.58.25,2.86.53,6.01.81,9.12,1.32-3.99,2.68-8.15,3.88-11.86,9.92-30.46,10.66-31.8,13.45-33.17,1.27-.62,2.7-.7,4.01-.22,3.08,1.12,3.48,3.84,4.08,7.96.04.26.08.54.12.82,1.94-5.78,2.68-6.8,4.52-7.71,1.22-.6,2.71-.69,3.99-.22,2.03.74,3.29,2.66,3.29,4.7ZM369.83,298.78c.59.21,1.16.31,1.71.3-.57,0-1.15-.1-1.71-.3ZM211.52,169.57c5.69-16.21,10.98-31.53,15.57-45.23,1.74-5.18,3.31-9.95,4.74-14.32-1.47,4.13-3.05,8.61-4.74,13.49-4.8,13.84-10.07,29.48-15.57,46.06ZM169.01,382.36c7.7-22.87,16.13-48.81,23.8-72.4,1.68-5.16,3.36-10.34,5.05-15.52-10.32,30.93-20.64,62.01-28.85,87.92Z"/>
</svg>