<?xml version="1.0" encoding="UTF-8"?>
<svg id="Layer_1" data-name="Layer 1" xmlns="http://www.w3.org/2000/svg" viewBox="0 0 666.35 460.62">
  <defs>
    <style>
      .cls-1 {
        fill: #231f20;
      }
    </style>
  </defs>
  <path class="cls-1" d="M407.76,396.49c-.57,0-1.14-.1-1.71-.3-.13-.05-.25-.1-.37-.15-.1-.03-.22-.07-.33-.11-1.21-.39-2.86-.93-3.81-2.87-.59-1.22-.67-2.63-.21-3.9.67-1.83.84-1.95,9.48-7.8-7.13-2.37-7.82-2.71-8.8-4.74-.59-1.22-.66-2.64-.2-3.91,1-2.75,1.68-3,19.18-9.5,1.37-.51,2.85-1.06,4.34-1.62-1.49-.49-2.97-.98-4.34-1.43-17.41-5.72-18.13-6.04-19.31-8.48-.59-1.22-.67-2.67-.21-3.95,1.33-3.65,4.57-3.83,12.42-4.27,4.74-.27,11.06-.49,17.18-.7.54-.02,1.08-.04,1.64-.06-.86-.28-1.71-.56-2.53-.83-26.12-8.57-26.28-8.9-27.51-11.43-.59-1.22-.67-2.71-.21-3.98,1.45-3.97,5.38-4.08,15.91-4.37,6.69-.18,15.65-.23,24.31-.28,3.72-.02,7.83-.04,11.88-.08-3.78-1.24-7.62-2.49-11.1-3.62-33.61-10.91-34.79-11.69-36.18-14.53-.62-1.28-.7-2.71-.22-4.04,1.78-4.89,6.91-4,19.31-1.85,4.38.76,9.56,1.73,15.06,2.8-25.52-8.42-26.84-9.52-28.11-12.12-.63-1.29-.71-2.73-.22-4.06.94-2.59,3.81-3.93,6.41-2.99.84.31,1.56.82,2.1,1.46,4.24,2.18,23.53,8.44,37.8,13.07,39.97,12.96,41.52,13.94,43,16.99.63,1.29.71,2.73.22,4.07-1.78,4.89-6.91,4-19.31,1.85-4.1-.71-8.89-1.61-13.99-2.59,11.58,4.03,12.44,5.01,13.4,6.98.62,1.28.7,2.71.22,4.04-1.45,3.97-5.38,4.08-15.91,4.37-6.69.18-15.64.23-24.3.28-3.42.02-7.17.04-10.9.07.5.16.98.32,1.46.48,26.12,8.57,26.27,8.9,27.51,11.43.59,1.22.67,2.7.21,3.98-1.33,3.65-4.57,3.83-12.42,4.28-4.74.27-11.06.49-17.18.7-.29.01-.58.02-.87.03,11.2,3.73,11.87,4.26,12.89,6.35.59,1.22.67,2.67.21,3.95-1,2.75-1.68,3-19.17,9.5-1.25.46-2.6.96-3.96,1.47,4.12,1.44,4.73,1.97,5.53,3.63.59,1.22.66,2.64.2,3.91-.67,1.84-.84,1.95-9.65,7.92-1.16.79-2.59,1.75-3.87,2.63-.05.36-.13.71-.26,1.05-.74,2.03-2.66,3.29-4.7,3.29ZM403.06,389.79c-.94,2.61.43,5.16,2.38,6.13-2.18-1.14-3.24-3.75-2.38-6.13ZM422.49,287.73s0,0,0,0c0,0,0,0,0,0ZM422.49,287.73s0,0,0,0c0,0,0,0,0,0ZM422.5,287.72s0,0,0,0c0,0,0,0,0,0ZM422.5,287.71s0,0,0,0c0,0,0,0,0,0ZM422.5,287.7s0,0,0,0c0,0,0,0,0,0ZM422.5,287.7s0,0,0,0c0,0,0,0,0,0ZM422.51,287.69s0,0,0,0c0,0,0,0,0,0ZM422.51,287.68s0,0,0,0c0,0,0,0,0,0ZM422.51,287.67s0,0,0,0c0,0,0,0,0,0ZM422.51,287.67s0,0,0,0c0,0,0,0,0,0ZM422.52,287.66s0,0,0,0c0,0,0,0,0,0ZM422.52,287.65s0,0,0,0c0,0,0,0,0,0ZM422.52,287.65h0s0,0,0,0ZM422.52,287.64s0,0,0,0t0,0ZM422.53,287.63s0,0,0,0t0,0Z"/>
  <path class="cls-1" d="M516.69,305.98c-3.9,0-9.31-1.06-16.59-2.82-10.62-2.56-25.62-6.88-45.84-13.2-37.43-11.7-87.69-28.71-136.3-45.16-45.79-15.5-93.14-31.52-129.59-43.05-7.78-2.46-14.66-4.59-20.76-6.43,27.13,9.42,62.47,20.9,93.72,31.06,33.81,10.99,68.77,22.35,94.95,31.48,45.49,15.86,46.99,18.93,48.31,21.63.7,1.43.79,3,.26,4.45-2.12,5.84-10.47,3.93-18.54,2.09-7.37-1.68-17.76-4.54-31.76-8.72-10.01-2.99-21.35-6.52-33.43-10.35,30.69,10.68,37.08,14.29,38.78,17.77.68,1.4.77,2.95.26,4.37-1.96,5.38-9.2,4.02-16.21,2.7-6.15-1.16-14.81-3.18-26.48-6.19-21.53-5.55-50.43-13.72-78.38-21.62-14.82-4.19-31.48-8.9-47.34-13.27,8.47,2.78,16.93,5.53,24.74,8.06,80.83,26.26,90.2,30.26,92.4,34.79.66,1.36.75,2.87.24,4.25-1.91,5.24-8.79,3.74-14.33,2.53-5-1.09-12.02-2.94-21.48-5.67-2.55-.74-5.23-1.52-8.01-2.35,1.64,1.06,2.35,1.94,2.81,2.87.65,1.33.73,2.81.23,4.18-1.82,4.99-7.75,3.71-12.53,2.68-3.97-.86-9.55-2.32-17.05-4.46-.75-.21-1.52-.44-2.3-.66.02.04.05.09.07.14.64,1.31.72,2.77.23,4.11-1.82,5-7.24,4.29-24.1,1.27-10.89-1.95-25.48-4.91-39.59-7.77-1.42-.29-2.87-.58-4.35-.88,1.29.79,1.59,1.4,2.02,2.29.59,1.22.67,2.71.21,3.98-.94,2.59-3.81,3.94-6.41,2.99-.66-.24-1.24-.61-1.72-1.06-2.98-1.39-14.6-5.2-23.22-8.02-26.62-8.71-26.78-9.04-28.03-11.61-.59-1.22-.67-2.71-.21-3.98,1.82-5,7.24-4.29,24.1-1.27,10.89,1.95,25.48,4.91,39.59,7.77,2.41.49,4.92,1,7.49,1.52-3.37-1.1-6.68-2.18-9.82-3.2-56.47-18.41-59.02-19.93-60.7-23.38-.64-1.31-.72-2.77-.23-4.11,1.41-3.86,5.28-3.97,9.16-3.34-4.95-2.24-6.35-3.6-7.09-5.11-.65-1.33-.73-2.81-.23-4.18,1.91-5.24,8.79-3.74,14.33-2.53,3.04.66,6.84,1.61,11.48,2.87-14.21-5.32-17.32-7.54-18.47-9.9-.66-1.36-.75-2.87-.24-4.25,1.96-5.38,9.2-4.02,16.21-2.7,6.15,1.16,14.81,3.18,26.48,6.19,21.53,5.55,50.43,13.72,78.38,21.62,19.61,5.54,42.44,12,62.4,17.37-20.87-7.08-45.31-15-66.19-21.77-101.86-33.03-116.12-38.81-118.79-44.28-.68-1.4-.77-2.95-.26-4.37,2.12-5.84,10.47-3.93,18.54-2.09,7.37,1.68,17.76,4.54,31.76,8.72,25.87,7.74,60.6,19.02,94.18,29.92,17.74,5.76,36.85,11.97,54.97,17.73-19.67-6.54-40.72-13.38-60.2-19.71-33.81-10.99-68.77-22.35-94.95-31.48-45.49-15.86-46.98-18.92-48.3-21.63-.7-1.43-.79-3-.26-4.45,2.07-5.69,9.17-5.03,24.3-1.38,10.62,2.56,25.62,6.88,45.84,13.2,37.43,11.7,87.69,28.71,136.3,45.16,45.79,15.5,93.14,31.52,129.59,43.05,14.64,4.63,26.12,8.08,35.12,10.65-7.65-2.87-17.24-6.32-29.22-10.48-33.13-11.5-76.69-25.65-118.82-39.34-43.42-14.11-88.33-28.71-121.94-40.43-57.88-20.18-59.74-24-61.24-27.06-.72-1.48-.82-3.12-.28-4.6,2.05-5.62,8.93-4.97,23.59-1.38,10.21,2.5,24.61,6.7,44.04,12.85,7.68,2.43,15.92,5.09,24.59,7.94-34.29-12.61-35.74-15.58-36.94-18.04-.71-1.46-.81-3.06-.27-4.53,2.16-5.93,10.03-4.41,21.79-1.41,7.25,1.85,16.85,4.68,29.18,8.61-.65-.69-.93-1.26-1.2-1.81-.7-1.43-.79-3.02-.27-4.46,2.05-5.64,9.33-4.43,20.21-1.94,8.32,1.91,20.06,5.14,35.89,9.89,22.26,6.68,50.33,15.68,79.22,25.06-1.91-.65-3.77-1.3-5.57-1.92-36.39-12.67-37.58-15.11-38.85-17.7-.68-1.39-.77-2.94-.26-4.36,2-5.5,9.68-4.04,17.1-2.64,6.65,1.26,16.03,3.46,28.66,6.73,23.33,6.04,54.64,14.92,84.92,23.52,18.75,5.32,40.21,11.41,59.86,16.79-8.55-2.8-17.11-5.57-24.99-8.12-78.45-25.39-87.56-29.3-89.76-33.81-.66-1.36-.75-2.87-.25-4.26,1.88-5.15,7.16-4.63,28.94-.18,13.64,2.79,31.94,6.98,49.63,11.04,6.46,1.48,13.48,3.09,20.52,4.68-8.12-2.67-16.46-5.37-24.3-7.91-67.48-21.88-74.8-25.06-76.8-29.15-.65-1.34-.74-2.83-.24-4.2,1.13-3.1,3.65-3.96,8.36-3.39-8.24-3.22-9.96-4.7-10.84-6.51-.64-1.31-.72-2.78-.23-4.13,1.67-4.58,6.52-3.95,17.15-2.58,4.88.63,10.92,1.51,17.2,2.46-27.16-8.84-28.42-9.82-29.73-12.48-.63-1.29-.71-2.73-.22-4.06.52-1.44.57-1.55,11.29-11.91,1.45-1.4,3.11-3,4.64-4.49-1.04-.34-2.08-.67-2.99-.96-10.78-3.44-12.16-3.89-13.34-6.29-.39-.79-.56-1.67-.51-2.54-.04-.89-.34-4.16-.55-6.36-.16-1.65-.28-2.96-.37-4.01-.95-.45-1.79-1.12-2.39-2.33-.61-1.23-.68-2.66-.21-3.94.95-2.59,3.82-3.92,6.42-2.97.18.07.35.14.52.23.17.06.38.12.59.18,1.72.54,3.35,1.04,4.33,3.03.39.79.56,1.67.51,2.54.04.92.35,4.16.55,6.34.17,1.79.3,3.18.4,4.28,2,.7,4.92,1.63,7.09,2.32,10.77,3.44,12.16,3.88,13.33,6.28.6,1.22.68,2.69.22,3.97-.52,1.43-.56,1.55-11.3,11.92-1.62,1.56-3.5,3.38-5.17,5.01,6.79,2.5,18.63,6.32,27.97,9.33,34.95,11.27,36.32,12.17,37.74,15.08.63,1.29.71,2.73.22,4.06-1.67,4.58-6.52,3.95-17.15,2.58-6.27-.81-14.45-2.04-22.59-3.27,7.6,2.51,15.45,5.07,22.49,7.36,55.83,18.17,61.04,20.47,62.83,24.14.64,1.31.72,2.78.23,4.13-1.1,3.03-3.54,3.92-8.09,3.42,32.31,10.84,36.96,13.44,38.49,16.58.65,1.34.74,2.83.24,4.2-1.88,5.16-7.16,4.64-28.94.18-13.64-2.79-31.94-6.98-49.63-11.04-7.81-1.79-16.44-3.77-24.91-5.67,13.67,4.56,28.6,9.39,41.66,13.62,78.45,25.39,87.55,29.3,89.76,33.81.66,1.36.75,2.87.25,4.26-2,5.5-9.67,4.05-17.09,2.64-6.65-1.26-16.03-3.46-28.66-6.73-23.33-6.04-54.64-14.93-84.92-23.52-23.09-6.56-50.3-14.28-73.17-20.4,19.8,6.7,42.81,14.15,62.52,20.54,26.74,8.66,54.39,17.62,75.11,24.83,36.39,12.67,37.58,15.11,38.84,17.7.68,1.39.77,2.94.25,4.36-2.05,5.64-9.33,4.43-20.21,1.94-8.32-1.91-20.06-5.14-35.89-9.89-29.25-8.78-68.54-21.57-106.52-33.94-33.11-10.78-70.42-22.93-99.99-31.95,27.87,9.6,62.92,21.01,94.11,31.16,35.51,11.56,72.23,23.5,99.72,33.09,47.68,16.63,49.21,19.78,50.57,22.56.7,1.43.79,3.02.27,4.46-2.16,5.93-10.03,4.41-21.79,1.41-.26-.07-.52-.13-.78-.2,6.06,3.12,6.79,4.61,7.44,5.95.71,1.46.81,3.06.27,4.53-2.04,5.62-8.93,4.97-23.59,1.38-10.21-2.5-24.61-6.7-44.04-12.85-5.79-1.83-11.89-3.79-18.25-5.87.18.06.35.12.53.18,57.89,20.18,59.75,24,61.24,27.06.72,1.48.82,3.12.28,4.6-1.08,2.95-3.51,4.2-7.71,4.2ZM161.53,296.77s0,0,0,0c0,0,0,0,0,0ZM161.54,296.75s0,0,0,0c0,0,0,0,0,0ZM161.54,296.74s0,0,0,0c0,0,0,0,0,0ZM161.55,296.72s0,0,0,0c0,0,0,0,0,0ZM161.56,296.7h0s0,0,0,0ZM161.56,296.69h0s0,0,0,0ZM161.57,296.67s0,0,0,.01c0,0,0,0,0-.01ZM161.57,296.65h0s0,0,0,0ZM351.51,221.97c.47.16.95.32,1.42.49,43.93,15.04,89.35,30.58,124.33,41.79,8.78,2.81,16.38,5.18,22.95,7.17-4.38-1.57-9.25-3.29-14.65-5.16-30.23-10.49-69.92-23.4-108.3-35.89-8.56-2.79-17.19-5.59-25.76-8.39ZM196.41,181.17c7.02,2.59,15.49,5.63,25.71,9.17,33.13,11.49,76.69,25.65,118.81,39.34,15.94,5.18,32.07,10.42,47.78,15.57-12.93-4.41-26.04-8.89-39.02-13.34-43.93-15.04-89.35-30.58-124.34-41.79-11.59-3.71-21.11-6.65-28.94-8.96ZM423.91,88.07c-.15.42-.22.79-.26,1.07.05-.37.13-.73.26-1.07ZM432.25,77.04c-.02.08-.05.15-.08.22.03-.08.05-.15.08-.22ZM429.49,76.28s0,0,0,0c0,0,0,0,0,0ZM429.5,76.26s0,0,0,.01c0,0,0,0,0-.01ZM429.73,75.31c-.05.32-.13.64-.24.95.11-.32.19-.64.24-.95ZM427.56,70.42c.31.2.59.44.84.7-.26-.27-.54-.51-.84-.7Z"/>
</svg>