<?xml version="1.0" encoding="UTF-8"?>
<svg id="Layer_1" data-name="Layer 1" xmlns="http://www.w3.org/2000/svg" viewBox="0 0 666.35 460.62">
  <defs>
    <style>
      .cls-1 {
        fill: #231f20;
      }
    </style>
  </defs>
  <path class="cls-1" d="M560.45,276.88c-.57,0-1.15-.1-1.71-.3-1.33-.48-2.33-1.47-2.86-2.67-9.05-6.39-76.47-28.32-130.91-46.02-32.27-10.49-65.63-21.34-90.61-30.06-43.5-15.17-44.88-18-46.22-20.74-.69-1.42-.78-2.98-.26-4.42,1.93-5.31,8.36-4.36,17.96-2.32,7.08,1.51,17.07,4.09,30.52,7.9,24.85,7.03,58.21,17.32,90.47,27.27,5.72,1.76,11.59,3.57,17.52,5.4-61.62-20.24-69.52-23.93-71.5-28-.66-1.35-.75-2.86-.24-4.24,2.08-5.71,8.43-4.72,34.71,2.02,13.58,3.48,30.89,8.28,48.54,13.23-15.04-5.35-16.43-6.75-17.49-8.92-.63-1.3-.71-2.76-.23-4.11,1.51-4.14,6.26-3.88,10.08-3.68,3.03.16,7.27.57,12.97,1.25,10.45,1.24,24.45,3.22,37.98,5.15,4.77.68,9.94,1.41,15.13,2.13-3.08-1.31-3.57-2.05-4.19-3.33-.6-1.22-.68-2.71-.21-3.98,1.33-3.65,4.69-3.76,11.39-3.97,4.06-.13,9.47-.18,14.71-.23,4.37-.04,9.68-.09,13.75-.2,1.28-1.76,3.61-2.53,5.75-1.75.23.08.45.18.65.29.27.09.63.2.98.31,2.23.7,3.84,1.2,4.84,3.22.61,1.22.69,2.66.22,3.94-1.33,3.65-4.69,3.76-11.39,3.97-2.84.09-6.33.14-9.97.18,15.94,5.21,16.62,5.76,17.75,8.06.59,1.22.68,2.71.21,3.98-1.51,4.14-6.26,3.88-10.08,3.68-3.03-.16-7.27-.57-12.97-1.25-10.44-1.24-24.44-3.22-37.98-5.14-6.48-.92-13.71-1.95-20.71-2.9,8.21,2.74,16.93,5.58,24.64,8.1,56.04,18.28,58.56,19.79,60.23,23.21.63,1.3.71,2.76.23,4.11-2.08,5.71-8.43,4.72-34.71-2.02-16.88-4.33-39.52-10.69-61.42-16.85-2.31-.65-4.68-1.31-7.08-1.99,3.53,1.15,6.98,2.28,10.32,3.36,81.68,26.59,91.14,30.63,93.33,35.13.66,1.35.75,2.86.24,4.24-1.93,5.31-8.37,4.36-17.96,2.32-7.08-1.51-17.07-4.09-30.52-7.9-24.85-7.03-58.22-17.32-90.48-27.27-24.3-7.49-51.28-15.81-74.36-22.6,24.03,8.18,52.74,17.52,78.53,25.91,32.26,10.49,65.63,21.34,90.61,30.05,43.5,15.17,44.88,18,46.21,20.74.69,1.42.78,2.98.26,4.42-.74,2.03-2.66,3.29-4.7,3.29ZM555.75,270.18h0,0ZM558.51,178.67,558.51,178.66h0ZM558.52,178.66s0,0,0,0t0,0ZM558.52,178.65s0,0,0,0c0,0,0,0,0,0ZM558.52,178.64s0,0,0,0c0,0,0,0,0,0ZM558.53,178.63s0,0,0,0c0,0,0,0,0,0ZM558.53,178.62h0s0,0,0,0ZM558.53,178.62h0s0,0,0,0ZM558.53,178.61h0,0ZM556.91,173.05c.12.1.24.2.35.3-.11-.11-.23-.21-.35-.3Z"/>
  <path class="cls-1" d="M271.4,411.64c-.57,0-1.15-.1-1.71-.3-.57-.21-1.07-.5-1.51-.87-1.77-.74-6.87-2.35-10.36-3.45-12.43-3.93-13.84-4.44-15.04-6.88-.6-1.22-.69-2.71-.22-3.99,1.12-3.08,3.84-3.48,7.96-4.08.71-.1,1.5-.21,2.33-.33-4.15-1.38-8.51-2.8-12.38-4.06-30.46-9.92-31.8-10.66-33.17-13.45-.62-1.27-.7-2.7-.22-4.01,1.29-3.55,4.56-3.91,13.29-4.86,5.4-.59,12.61-1.22,19.58-1.83,3.37-.3,7.14-.63,10.79-.96-11.01-3.86-26.06-8.77-38.43-12.8-53.98-17.6-56.42-19.06-58.06-22.43-.63-1.3-.71-2.76-.23-4.1,1.78-4.89,6.56-4.33,22.83-1.64,10.19,1.68,23.84,4.26,37.04,6.76,3.6.68,7.44,1.41,11.34,2.14-10.37-3.46-21.57-7.1-31.88-10.46-66.58-21.69-73.27-24.6-75.23-28.61-.65-1.33-.73-2.81-.23-4.17,1.16-3.2,4.01-3.81,7.12-3.58-21.39-7.52-25.1-9.9-26.43-12.62-.65-1.34-.74-2.84-.24-4.21,1.85-5.08,7.97-3.8,13.37-2.68,4,.83,9.46,2.2,16.62,4.16-6.48-2.17-12.58-4.24-18.1-6.16-31.1-10.84-32.12-12.92-33.29-15.33-.67-1.36-.75-2.88-.25-4.27,1.86-5.11,8.35-4,14.63-2.94,5.3.9,12.76,2.5,22.81,4.89,18.52,4.41,43.37,10.94,67.4,17.26,14.33,3.77,30.68,8.06,45.79,11.9-15.59-5.21-32.7-10.76-47.64-15.6-88.21-28.59-98.42-32.94-100.79-37.79-.67-1.37-.76-2.9-.25-4.3,2.04-5.6,9.65-3.93,17.01-2.33,6.52,1.42,15.72,3.86,28.1,7.43,22.86,6.6,53.55,16.25,83.24,25.58.04.01.08.03.12.04-101.35-32.96-115.59-38.75-118.23-44.16-.68-1.39-.77-2.94-.25-4.36,2.01-5.52,9.04-4.42,19.54-2.11,7.96,1.75,19.19,4.74,34.32,9.14,27.97,8.13,65.53,20.01,101.85,31.49,31.42,9.93,66.79,21.12,94.95,29.46-25.91-8.9-58.15-19.38-86.88-28.72-33.33-10.84-67.79-22.04-93.6-31.04-44.87-15.65-46.35-18.68-47.65-21.35-.69-1.42-.79-3-.26-4.44,2.11-5.81,9.84-4.46,21.39-1.72,8.97,2.12,21.63,5.71,38.7,10.97,31.56,9.72,73.95,23.87,114.94,37.55,38.42,12.82,78.15,26.08,108.81,35.64,3.73,1.16,7.22,2.24,10.47,3.23-2.86-1.01-5.9-2.08-9.13-3.2-29.68-10.3-68.64-22.97-106.32-35.23-38.97-12.68-79.27-25.79-109.44-36.32-52.14-18.19-53.78-21.55-55.22-24.51-.71-1.45-.8-3.06-.27-4.52,1.93-5.3,8.48-4.76,18.37-2.41-5.37-2.78-7.66-4.79-8.54-6.6-.72-1.48-.82-3.12-.28-4.6,1.77-4.86,6.56-4.34,22.92-1.78,10.26,1.61,24.02,4.08,37.32,6.48,2.47.45,5.06.91,7.7,1.38-42.08-13.57-45.74-15.25-47.34-18.53-.64-1.3-.72-2.76-.23-4.1,1.55-4.26,5.56-4.26,19.27-3.58,8.44.41,19.74,1.22,30.67,2,4.79.34,10.1.72,15.31,1.07-2.42-.79-4.81-1.55-7.05-2.27-34.87-11.23-36.24-12.13-37.67-15.04-.63-1.29-.71-2.73-.22-4.06,1.51-4.15,5.78-4.05,16.1-3.82,6.66.15,15.57.55,24.18.94,2.08.09,4.28.19,6.52.29-.18-.06-.35-.12-.53-.17-27.94-9.03-29.18-9.73-30.53-12.49-.61-1.25-.69-2.72-.22-4.02,1.44-3.95,4.99-3.9,11.75-2.97-3.66-1.53-4.02-2.27-4.66-3.58-.59-1.22-.68-2.72-.21-3.99,1.39-3.82,5.09-3.82,12.46-3.83h.14c3.35,0,7.5.07,11.78.16-4.48-1.64-5.17-2.4-5.94-3.98-.6-1.22-.68-2.71-.22-3.99.91-2.5,1.26-2.7,18.6-10.7,1.71-.79,3.6-1.66,5.46-2.53-1.35-.64-2.01-1.31-2.58-2.47-.6-1.22-.68-2.67-.22-3.96.42-1.15.52-1.26,5.63-6.88.61-.67,1.31-1.44,1.96-2.16-.02-.63.07-1.27.29-1.88.93-2.6,3.79-3.95,6.39-3.02.12.04.24.09.36.14l.08.02c.95.29,2.72.82,3.71,2.79.62,1.23.7,2.66.23,3.96-.41,1.13-.52,1.26-5.28,6.5,4.37,1.39,5.57,1.96,6.53,3.91.6,1.22.68,2.67.22,3.96-.91,2.49-1.25,2.69-18.6,10.7-1.81.83-3.83,1.77-5.79,2.68,1.55.5,3.08.99,4.43,1.42,15.94,5.09,16.96,5.54,18.18,8.02.6,1.22.68,2.71.22,3.99-1.39,3.82-5.09,3.83-12.46,3.83h-.14c-3.62,0-8.17-.08-12.81-.18,25.11,8.2,25.29,8.57,26.53,11.11.59,1.22.68,2.72.21,3.99-1.38,3.79-4.71,3.9-10.96,3.08,7.42,2.69,8.22,3.61,9.07,5.34.61,1.25.69,2.72.22,4.02-1.51,4.15-5.78,4.05-16.09,3.81-6.66-.15-15.56-.55-24.17-.94-2.4-.11-4.98-.22-7.58-.34,2.99.97,5.96,1.93,8.71,2.81,34.88,11.23,36.25,12.13,37.68,15.05.63,1.29.71,2.73.22,4.06-1.55,4.26-5.57,4.26-19.27,3.58-8.44-.41-19.74-1.22-30.67-2-5.23-.37-11.06-.79-16.71-1.17,6.1,2.01,12.5,4.08,18.19,5.91,42.14,13.59,45.8,15.27,47.41,18.55.64,1.3.72,2.76.23,4.1-1.77,4.86-6.56,4.34-22.92,1.78-10.26-1.61-24.02-4.08-37.32-6.48-8.94-1.61-19.34-3.48-28.53-5.04,8.86,3.48,21.33,8.07,38.83,14.15,33.72,11.7,78.06,26.13,120.95,40.08,156.64,50.95,182.8,61.37,186.34,68.64.72,1.48.82,3.12.28,4.6-2.23,6.13-10.67,4.45-23.29,1.17-7.67-1.99-17.77-5-30.65-9.14.33.46.53.87.73,1.27.71,1.45.8,3.06.27,4.52-2.11,5.81-9.84,4.46-21.39,1.72-8.97-2.12-21.63-5.71-38.7-10.97-15.25-4.7-33.03-10.43-51.96-16.64,1.14.39,2.26.78,3.37,1.17,44.88,15.65,46.35,18.68,47.66,21.35.69,1.42.79,3,.26,4.44-2.01,5.52-9.04,4.42-19.54,2.11-7.96-1.75-19.19-4.74-34.32-9.14-27.97-8.13-65.53-20.01-101.85-31.49-24.81-7.85-52.09-16.47-76.34-23.86,15.8,5.24,32.3,10.6,47.05,15.4,103,33.48,117.4,39.31,120.06,44.75.68,1.39.77,2.94.25,4.36-2.03,5.6-9.65,3.93-17.01,2.33-6.52-1.42-15.72-3.86-28.1-7.43-12.79-3.69-28.02-8.34-44.16-13.35,33.34,11.37,38.84,14.52,40.5,17.91.67,1.37.76,2.9.25,4.3-1.86,5.11-8.35,4-14.63,2.94-5.3-.9-12.76-2.5-22.8-4.89-18.52-4.41-43.36-10.94-67.39-17.26-13.71-3.6-29.27-7.69-43.83-11.4,13.87,4.62,28.68,9.43,41.77,13.68,22.64,7.36,46.06,14.96,63.6,21.08,31.1,10.84,32.11,12.92,33.29,15.33.67,1.36.75,2.88.25,4.27-1.85,5.08-7.97,3.8-13.37,2.68-3.63-.75-8.45-1.95-14.66-3.62,19.67,6.98,23.19,9.29,24.47,11.93.65,1.34.74,2.84.24,4.21-1.34,3.68-4.9,3.95-8.56,3.43,6.93,2.88,8.64,4.4,9.48,6.13.65,1.33.73,2.81.23,4.17-1.78,4.89-6.55,4.33-22.84,1.64-10.19-1.68-23.84-4.26-37.04-6.76-2.28-.43-4.66-.88-7.09-1.34,3.6,1.18,7.13,2.33,10.46,3.42,53.98,17.6,56.42,19.06,58.06,22.43.63,1.3.71,2.76.23,4.1-1.29,3.55-4.56,3.91-13.29,4.86-5.39.59-12.61,1.22-19.58,1.83-2.86.25-6.01.53-9.12.81,3.99,1.32,8.15,2.68,11.86,3.88,30.46,9.92,31.8,10.66,33.17,13.45.62,1.27.7,2.7.22,4.01-1.12,3.08-3.84,3.48-7.96,4.08-.26.04-.54.08-.82.12,5.78,1.94,6.8,2.68,7.71,4.52.6,1.22.69,2.71.22,3.99-.74,2.03-2.66,3.29-4.7,3.29ZM266.71,404.92c-.21.59-.31,1.16-.3,1.71,0-.57.1-1.15.3-1.71ZM395.91,246.61c16.21,5.69,31.53,10.98,45.23,15.57,5.18,1.74,9.95,3.31,14.32,4.74-4.13-1.47-8.61-3.05-13.49-4.74-13.84-4.8-29.48-10.07-46.06-15.57ZM183.12,204.1c22.87,7.7,48.81,16.13,72.4,23.8,5.16,1.68,10.34,3.36,15.52,5.05-30.93-10.32-62.01-20.64-87.92-28.85Z"/>
</svg>